<?xml version="1.0" encoding="UTF-8"?>
<svg version="1.1" xmlns="http://www.w3.org/2000/svg" width="1024" height="1024">
<path d="M0 0 C1.56825086 0.91418166 3.11296857 1.87055994 4.625 2.875 C5.23730469 3.27460937 5.84960938 3.67421875 6.48046875 4.0859375 C18.41503756 13.09831212 25.52942386 30.06072173 32.79003906 42.68896484 C35.73608697 47.80417575 38.71153963 52.90215164 41.6875 58 C42.54939941 59.47726563 42.54939941 59.47726563 43.42871094 60.984375 C54.91984013 80.84761869 54.91984013 80.84761869 67.03588867 100.32983398 C68.57484298 102.79466709 69.96519034 105.29181871 71.33203125 107.85546875 C74.84317625 114.3397913 78.59703903 120.66847163 82.375 127 C83.44877364 128.80477645 84.52183453 130.6099755 85.59489441 132.41517639 C86.30072496 133.60243933 87.00678695 134.78956472 87.71308899 135.97654724 C90.42735605 140.53842748 93.12564552 145.10943497 95.8125 149.6875 C99.57226108 156.08989957 103.34617111 162.48383604 107.125 168.875 C111.29370051 175.925557 115.45382921 182.98099437 119.60107422 190.04418945 C122.57416702 195.10200781 125.56632026 200.14836303 128.56193542 205.19287109 C140.16435983 224.73209988 140.16435983 224.73209988 145.515625 234.1796875 C152.53593921 246.53287731 159.7826104 258.76119845 167 271 C171.27625928 278.25381552 175.46362606 285.55468836 179.625 292.875 C180.95706163 295.2090607 182.29107339 297.54200478 183.625 299.875 C184.29819482 301.05337529 184.97137196 302.23176067 185.64453125 303.41015625 C186.91162756 305.62695 188.17975778 307.84315329 189.44921875 310.05859375 C198.00500067 324.99982297 206.48805969 339.98269648 214.8269043 355.04614258 C218.12079782 360.98802949 221.46314913 366.90173292 224.8125 372.8125 C238.10088406 396.30281997 251.02993444 419.94379248 263.56072998 443.84539795 C264.59178445 445.81165672 265.62413574 447.77722965 266.65673828 449.74267578 C272.97692897 461.78035248 279.21951229 473.82967935 284.90234375 486.18359375 C286.55009334 489.75480089 288.3291643 493.25073178 290.125 496.75 C301.30501387 519.03327707 310.09559529 541.25121602 304.375 566.375 C304.17003906 567.34308594 303.96507812 568.31117188 303.75390625 569.30859375 C301.66414904 578.7441642 298.1101604 587.28221983 293.75 595.875 C293.22575439 596.91116455 293.22575439 596.91116455 292.69091797 597.96826172 C283.58143478 615.79914659 271.55778952 631.97961861 257.5703125 646.29296875 C251.83250849 653.90880901 252.2406913 661.98005605 252.33657074 671.06216431 C252.35987154 673.4892207 252.3606454 675.9153756 252.35528564 678.3425293 C252.34272892 685.23964945 252.3587027 692.13629615 252.41552734 699.03320312 C252.68772977 735.32582744 246.88955867 762.92520558 220.98242188 789.56396484 C204.55049829 806.11947389 184.2927584 815.08088038 161.83886719 820.35009766 C158.58803747 821.12086121 155.35916629 821.97489879 152.125 822.8125 C136.15337273 826.80488994 120.05410421 830.74005367 103.71166992 832.84985352 C96.12891883 833.88647161 90.04243017 836.26885444 83.75 840.6875 C79.25427295 843.77690037 74.72229178 846.69462231 70.01953125 849.45703125 C68.48153851 850.36778388 66.95653237 851.30104311 65.44921875 852.26171875 C47.58927209 863.52057977 27.26180882 870.89276518 7.25 877.3125 C6.48365234 877.55959717 5.71730469 877.80669434 4.92773438 878.0612793 C-23.82430497 887.00642907 -57.13558785 871.36568388 -82.59960938 858.23168945 C-86.5489494 856.15640679 -90.46724127 854.02738796 -94.375 851.875 C-95.03693359 851.51229004 -95.69886719 851.14958008 -96.38085938 850.77587891 C-102.6797398 847.30823101 -108.7690828 843.65470534 -114.6875 839.5625 C-122.76398683 834.14289154 -130.23424574 832.63486385 -139.74023438 831.13720703 C-155.03100784 828.70739789 -170.20984211 825.37158283 -185.18115234 821.43603516 C-187.72471777 820.78556628 -190.27756042 820.18041653 -192.83203125 819.57421875 C-221.02601306 812.75476123 -246.32806422 799.96843859 -262.375 774.875 C-270.17133523 761.74130382 -276.49041743 746.74971037 -276.54858398 731.33422852 C-276.555271 730.59211121 -276.56195801 729.8499939 -276.56884766 729.08538818 C-276.58285249 727.48016023 -276.5947609 725.87491291 -276.60479546 724.26965523 C-276.6212735 721.72616122 -276.64451306 719.18281092 -276.66969299 716.63938904 C-276.74028733 709.40997535 -276.80057418 702.18050419 -276.85180664 694.95092773 C-276.88365787 690.52304523 -276.92494417 686.09533111 -276.97200203 681.66758537 C-276.98797933 679.98396781 -277.00032055 678.30031156 -277.00890923 676.61664009 C-277.02111029 674.25930869 -277.04527858 671.90237105 -277.07202148 669.54516602 C-277.07261063 668.85458603 -277.07319977 668.16400604 -277.07380676 667.45249939 C-277.17288257 660.83700764 -278.72873173 656.19252705 -282.9375 651.125 C-283.65421875 650.25746094 -284.3709375 649.38992188 -285.109375 648.49609375 C-287.25603276 646.01263279 -289.45845976 643.59694817 -291.6875 641.1875 C-313.86232645 616.76084092 -332.98018989 582.52933364 -332.51953125 548.859375 C-331.10513741 519.65405363 -311.81493263 490.26556412 -298.58203125 465.0078125 C-296.42202737 460.88350757 -294.27419952 456.75320957 -292.13671875 452.6171875 C-286.0283062 440.80337658 -279.81009002 429.06258348 -273.40625 417.40625 C-271.30545473 413.58214611 -269.22393144 409.74835999 -267.15625 405.90625 C-260.9089724 394.2997745 -254.52173552 382.79257763 -247.94921875 371.3671875 C-245.5442281 367.18317445 -243.20956407 362.96592959 -240.91796875 358.71875 C-237.13033727 351.73800134 -233.24273198 344.81157982 -229.375 337.875 C-228.98908691 337.18180664 -228.60317383 336.48861328 -228.20556641 335.77441406 C-223.3039396 326.97662236 -218.27898367 318.26057713 -213.15625 309.58984375 C-203.00898731 292.40935152 -193.04333676 275.12259192 -183.08105469 257.83447266 C-172.06726217 238.72897854 -160.9780367 219.66694628 -149.77441406 200.67211914 C-147.33560755 196.5298676 -144.9362756 192.3675165 -142.5625 188.1875 C-138.71383735 181.42550705 -134.75801989 174.72962573 -130.79248047 168.03564453 C-126.06819466 160.05777767 -121.37350525 152.06288362 -116.6875 144.0625 C-115.22919408 141.57290061 -113.77087042 139.08331161 -112.3125 136.59375 C-111.96564148 136.00160706 -111.61878296 135.40946411 -111.26141357 134.79937744 C-108.57647255 130.21665845 -105.88386096 125.63850553 -103.1875 121.0625 C-98.61579478 113.30168941 -94.08165664 105.51906057 -89.54614258 97.73706055 C-85.77689945 91.27191457 -81.99353223 84.81542534 -78.19213867 78.36914062 C-75.84090852 74.37825552 -73.50305196 70.37991082 -71.17578125 66.375 C-64.98271058 55.71838371 -58.75279441 45.0847336 -52.4375 34.5 C-51.83526611 33.48486328 -51.23303223 32.46972656 -50.61254883 31.42382812 C-46.79133179 25.04262296 -42.7502891 18.89016124 -38.375 12.875 C-37.70597656 11.94171875 -37.03695313 11.0084375 -36.34765625 10.046875 C-33.81527379 7.25874699 -30.92426129 5.20417458 -27.8125 3.125 C-26.9472168 2.52751953 -26.9472168 2.52751953 -26.06445312 1.91796875 C-18.23194966 -3.41210858 -8.65654025 -4.14875662 0 0 Z " fill="#030901" transform="translate(527.375,76.125)"/>
<path d="M0 0 C1.56825086 0.91418166 3.11296857 1.87055994 4.625 2.875 C5.23730469 3.27460937 5.84960938 3.67421875 6.48046875 4.0859375 C18.41503756 13.09831212 25.52942386 30.06072173 32.79003906 42.68896484 C35.73608697 47.80417575 38.71153963 52.90215164 41.6875 58 C42.54939941 59.47726563 42.54939941 59.47726563 43.42871094 60.984375 C54.91984013 80.84761869 54.91984013 80.84761869 67.03588867 100.32983398 C68.57484298 102.79466709 69.96519034 105.29181871 71.33203125 107.85546875 C74.84317625 114.3397913 78.59703903 120.66847163 82.375 127 C83.44877364 128.80477645 84.52183453 130.6099755 85.59489441 132.41517639 C86.30072496 133.60243933 87.00678695 134.78956472 87.71308899 135.97654724 C90.42735605 140.53842748 93.12564552 145.10943497 95.8125 149.6875 C99.57226108 156.08989957 103.34617111 162.48383604 107.125 168.875 C111.29370051 175.925557 115.45382921 182.98099437 119.60107422 190.04418945 C122.57416702 195.10200781 125.56632026 200.14836303 128.56193542 205.19287109 C140.16435983 224.73209988 140.16435983 224.73209988 145.515625 234.1796875 C152.53593921 246.53287731 159.7826104 258.76119845 167 271 C171.27625928 278.25381552 175.46362606 285.55468836 179.625 292.875 C180.95706163 295.2090607 182.29107339 297.54200478 183.625 299.875 C184.29819482 301.05337529 184.97137196 302.23176067 185.64453125 303.41015625 C186.91162756 305.62695 188.17975778 307.84315329 189.44921875 310.05859375 C198.00500067 324.99982297 206.48805969 339.98269648 214.8269043 355.04614258 C218.12079782 360.98802949 221.46314913 366.90173292 224.8125 372.8125 C238.10088406 396.30281997 251.02993444 419.94379248 263.56072998 443.84539795 C264.59178445 445.81165672 265.62413574 447.77722965 266.65673828 449.74267578 C272.97692897 461.78035248 279.21951229 473.82967935 284.90234375 486.18359375 C286.55009334 489.75480089 288.3291643 493.25073178 290.125 496.75 C301.30501387 519.03327707 310.09559529 541.25121602 304.375 566.375 C304.17003906 567.34308594 303.96507812 568.31117188 303.75390625 569.30859375 C301.66414904 578.7441642 298.1101604 587.28221983 293.75 595.875 C293.22575439 596.91116455 293.22575439 596.91116455 292.69091797 597.96826172 C283.58143478 615.79914659 271.55778952 631.97961861 257.5703125 646.29296875 C251.83250849 653.90880901 252.2406913 661.98005605 252.33657074 671.06216431 C252.35987154 673.4892207 252.3606454 675.9153756 252.35528564 678.3425293 C252.34272892 685.23964945 252.3587027 692.13629615 252.41552734 699.03320312 C252.68772977 735.32582744 246.88955867 762.92520558 220.98242188 789.56396484 C204.55049829 806.11947389 184.2927584 815.08088038 161.83886719 820.35009766 C158.58803747 821.12086121 155.35916629 821.97489879 152.125 822.8125 C136.15337273 826.80488994 120.05410421 830.74005367 103.71166992 832.84985352 C96.12891883 833.88647161 90.04243017 836.26885444 83.75 840.6875 C79.25427295 843.77690037 74.72229178 846.69462231 70.01953125 849.45703125 C68.48153851 850.36778388 66.95653237 851.30104311 65.44921875 852.26171875 C47.58927209 863.52057977 27.26180882 870.89276518 7.25 877.3125 C6.48365234 877.55959717 5.71730469 877.80669434 4.92773438 878.0612793 C-23.82430497 887.00642907 -57.13558785 871.36568388 -82.59960938 858.23168945 C-86.5489494 856.15640679 -90.46724127 854.02738796 -94.375 851.875 C-95.03693359 851.51229004 -95.69886719 851.14958008 -96.38085938 850.77587891 C-102.6797398 847.30823101 -108.7690828 843.65470534 -114.6875 839.5625 C-122.76398683 834.14289154 -130.23424574 832.63486385 -139.74023438 831.13720703 C-155.03100784 828.70739789 -170.20984211 825.37158283 -185.18115234 821.43603516 C-187.72471777 820.78556628 -190.27756042 820.18041653 -192.83203125 819.57421875 C-221.02601306 812.75476123 -246.32806422 799.96843859 -262.375 774.875 C-270.17133523 761.74130382 -276.49041743 746.74971037 -276.54858398 731.33422852 C-276.555271 730.59211121 -276.56195801 729.8499939 -276.56884766 729.08538818 C-276.58285249 727.48016023 -276.5947609 725.87491291 -276.60479546 724.26965523 C-276.6212735 721.72616122 -276.64451306 719.18281092 -276.66969299 716.63938904 C-276.74028733 709.40997535 -276.80057418 702.18050419 -276.85180664 694.95092773 C-276.88365787 690.52304523 -276.92494417 686.09533111 -276.97200203 681.66758537 C-276.98797933 679.98396781 -277.00032055 678.30031156 -277.00890923 676.61664009 C-277.02111029 674.25930869 -277.04527858 671.90237105 -277.07202148 669.54516602 C-277.07261063 668.85458603 -277.07319977 668.16400604 -277.07380676 667.45249939 C-277.17288257 660.83700764 -278.72873173 656.19252705 -282.9375 651.125 C-283.65421875 650.25746094 -284.3709375 649.38992188 -285.109375 648.49609375 C-287.25603276 646.01263279 -289.45845976 643.59694817 -291.6875 641.1875 C-313.86232645 616.76084092 -332.98018989 582.52933364 -332.51953125 548.859375 C-331.10513741 519.65405363 -311.81493263 490.26556412 -298.58203125 465.0078125 C-296.42202737 460.88350757 -294.27419952 456.75320957 -292.13671875 452.6171875 C-286.0283062 440.80337658 -279.81009002 429.06258348 -273.40625 417.40625 C-271.30545473 413.58214611 -269.22393144 409.74835999 -267.15625 405.90625 C-260.9089724 394.2997745 -254.52173552 382.79257763 -247.94921875 371.3671875 C-245.5442281 367.18317445 -243.20956407 362.96592959 -240.91796875 358.71875 C-237.13033727 351.73800134 -233.24273198 344.81157982 -229.375 337.875 C-228.98908691 337.18180664 -228.60317383 336.48861328 -228.20556641 335.77441406 C-223.3039396 326.97662236 -218.27898367 318.26057713 -213.15625 309.58984375 C-203.00898731 292.40935152 -193.04333676 275.12259192 -183.08105469 257.83447266 C-172.06726217 238.72897854 -160.9780367 219.66694628 -149.77441406 200.67211914 C-147.33560755 196.5298676 -144.9362756 192.3675165 -142.5625 188.1875 C-138.71383735 181.42550705 -134.75801989 174.72962573 -130.79248047 168.03564453 C-126.06819466 160.05777767 -121.37350525 152.06288362 -116.6875 144.0625 C-115.22919408 141.57290061 -113.77087042 139.08331161 -112.3125 136.59375 C-111.96564148 136.00160706 -111.61878296 135.40946411 -111.26141357 134.79937744 C-108.57647255 130.21665845 -105.88386096 125.63850553 -103.1875 121.0625 C-98.61579478 113.30168941 -94.08165664 105.51906057 -89.54614258 97.73706055 C-85.77689945 91.27191457 -81.99353223 84.81542534 -78.19213867 78.36914062 C-75.84090852 74.37825552 -73.50305196 70.37991082 -71.17578125 66.375 C-64.98271058 55.71838371 -58.75279441 45.0847336 -52.4375 34.5 C-51.83526611 33.48486328 -51.23303223 32.46972656 -50.61254883 31.42382812 C-46.79133179 25.04262296 -42.7502891 18.89016124 -38.375 12.875 C-37.70597656 11.94171875 -37.03695313 11.0084375 -36.34765625 10.046875 C-33.81527379 7.25874699 -30.92426129 5.20417458 -27.8125 3.125 C-26.9472168 2.52751953 -26.9472168 2.52751953 -26.06445312 1.91796875 C-18.23194966 -3.41210858 -8.65654025 -4.14875662 0 0 Z M-16.375 17.875 C-19.82667842 22.4461417 -22.26901989 26.55990733 -24.375 31.875 C-24.766875 32.596875 -25.15875 33.31875 -25.5625 34.0625 C-26.64770394 36.1522927 -26.64770394 36.1522927 -26.375 39.875 C-27.035 39.875 -27.695 39.875 -28.375 39.875 C-28.375 40.865 -28.375 41.855 -28.375 42.875 C-29.365 43.205 -30.355 43.535 -31.375 43.875 C-33.05942765 46.12056677 -33.05942765 46.12056677 -34.5625 48.8125 C-35.09230469 49.70839844 -35.62210937 50.60429688 -36.16796875 51.52734375 C-37.5274159 53.73148389 -37.5274159 53.73148389 -37.375 55.875 C-38.035 55.875 -38.695 55.875 -39.375 55.875 C-42.93595506 60.39964587 -45.18517262 65.59950677 -47.375 70.875 C-48.375 72.54166667 -49.375 74.20833333 -50.375 75.875 C-50.375 76.535 -50.375 77.195 -50.375 77.875 C-51.035 77.875 -51.695 77.875 -52.375 77.875 C-53.21319158 79.49749941 -54.0454116 81.12308497 -54.875 82.75 C-55.3390625 83.65492188 -55.803125 84.55984375 -56.28125 85.4921875 C-57.51405589 87.74096859 -57.51405589 87.74096859 -57.375 89.875 C-58.035 89.875 -58.695 89.875 -59.375 89.875 C-61.09267682 93.85688718 -62.78537341 97.83979403 -64.375 101.875 C-65.035 101.875 -65.695 101.875 -66.375 101.875 C-66.766875 102.865 -67.15875 103.855 -67.5625 104.875 C-69.13048186 108.57634179 -71.16242224 111.83605581 -73.38671875 115.17578125 C-74.5425862 116.83552275 -74.5425862 116.83552275 -74.375 118.875 C-75.035 118.875 -75.695 118.875 -76.375 118.875 C-77.21319158 120.49749941 -78.0454116 122.12308497 -78.875 123.75 C-79.3390625 124.65492188 -79.803125 125.55984375 -80.28125 126.4921875 C-81.51405589 128.74096859 -81.51405589 128.74096859 -81.375 130.875 C-82.035 130.875 -82.695 130.875 -83.375 130.875 C-83.766875 131.865 -84.15875 132.855 -84.5625 133.875 C-86.13048186 137.57634179 -88.16242224 140.83605581 -90.38671875 144.17578125 C-91.5425862 145.83552275 -91.5425862 145.83552275 -91.375 147.875 C-92.035 147.875 -92.695 147.875 -93.375 147.875 C-94.52329977 150.144616 -95.66871978 152.41560778 -96.8125 154.6875 C-97.13798828 155.33009766 -97.46347656 155.97269531 -97.79882812 156.63476562 C-99.16732676 159.35765466 -100.40983265 161.97949794 -101.375 164.875 C-102.035 164.875 -102.695 164.875 -103.375 164.875 C-105.09267682 168.85688718 -106.78537341 172.83979403 -108.375 176.875 C-109.035 176.875 -109.695 176.875 -110.375 176.875 C-110.766875 177.865 -111.15875 178.855 -111.5625 179.875 C-113.13048186 183.57634179 -115.16242224 186.83605581 -117.38671875 190.17578125 C-118.5425862 191.83552275 -118.5425862 191.83552275 -118.375 193.875 C-119.035 193.875 -119.695 193.875 -120.375 193.875 C-122.74480013 196.82877498 -122.74480013 196.82877498 -122.375 200.875 C-123.035 200.875 -123.695 200.875 -124.375 200.875 C-124.82875 201.926875 -125.2825 202.97875 -125.75 204.0625 C-126.02585937 204.69800781 -126.30171875 205.33351563 -126.5859375 205.98828125 C-127.24015008 207.55256182 -127.8179693 209.14853674 -128.375 210.75 C-128.705 211.45125 -129.035 212.1525 -129.375 212.875 C-130.365 213.205 -131.355 213.535 -132.375 213.875 C-133.02993946 215.66746588 -133.67579618 217.46365705 -134.28125 219.2734375 C-135.96345631 223.27468536 -138.33212064 226.84769993 -140.68237305 230.48144531 C-142.73476456 233.43815241 -142.73476456 233.43815241 -143.375 236.875 C-144.035 236.875 -144.695 236.875 -145.375 236.875 C-146.035 239.185 -146.695 241.495 -147.375 243.875 C-148.035 243.875 -148.695 243.875 -149.375 243.875 C-150.21319158 245.49749941 -151.0454116 247.12308497 -151.875 248.75 C-152.3390625 249.65492188 -152.803125 250.55984375 -153.28125 251.4921875 C-154.51405589 253.74096859 -154.51405589 253.74096859 -154.375 255.875 C-155.035 255.875 -155.695 255.875 -156.375 255.875 C-158.09267682 259.85688718 -159.78537341 263.83979403 -161.375 267.875 C-162.035 267.875 -162.695 267.875 -163.375 267.875 C-165.09267682 271.85688718 -166.78537341 275.83979403 -168.375 279.875 C-169.035 279.875 -169.695 279.875 -170.375 279.875 C-172.09267682 283.85688718 -173.78537341 287.83979403 -175.375 291.875 C-176.035 291.875 -176.695 291.875 -177.375 291.875 C-177.89449219 292.9371875 -178.41398438 293.999375 -178.94921875 295.09375 C-185.28983335 307.96665804 -185.28983335 307.96665804 -188.375 312.75 C-190.55468457 315.53738955 -190.55468457 315.53738955 -190.375 317.875 C-191.035 317.875 -191.695 317.875 -192.375 317.875 C-192.76300781 318.84824219 -193.15101563 319.82148438 -193.55078125 320.82421875 C-195.49069511 325.35296533 -198.00724203 329.48462919 -200.5625 333.6875 C-201.47665094 335.19158979 -202.38701149 336.69799199 -203.29296875 338.20703125 C-203.69281982 338.86421143 -204.0926709 339.5213916 -204.50463867 340.19848633 C-205.52858617 341.85601267 -205.52858617 341.85601267 -205.375 343.875 C-206.035 343.875 -206.695 343.875 -207.375 343.875 C-208.055625 345.48375 -208.055625 345.48375 -208.75 347.125 C-209.62412779 349.17982173 -210.51922661 351.14827148 -211.5625 353.125 C-212.58555565 355.00693471 -212.58555565 355.00693471 -212.375 357.875 C-213.035 357.875 -213.695 357.875 -214.375 357.875 C-214.375 358.535 -214.375 359.195 -214.375 359.875 C-215.035 359.875 -215.695 359.875 -216.375 359.875 C-216.7875 360.885625 -217.2 361.89625 -217.625 362.9375 C-218.77357637 365.64132572 -220.06937294 368.15821715 -221.5625 370.6875 C-223.53976741 373.55363253 -223.53976741 373.55363253 -223.375 375.875 C-224.035 375.875 -224.695 375.875 -225.375 375.875 C-225.72111328 376.69291016 -225.72111328 376.69291016 -226.07421875 377.52734375 C-228.2460639 382.54919913 -230.65695286 387.30532311 -233.421875 392.02734375 C-234.52781716 393.82473822 -234.52781716 393.82473822 -234.375 395.875 C-235.035 395.875 -235.695 395.875 -236.375 395.875 C-237.365 398.845 -238.355 401.815 -239.375 404.875 C-240.035 404.875 -240.695 404.875 -241.375 404.875 C-241.58253906 405.37386719 -241.79007812 405.87273437 -242.00390625 406.38671875 C-244.63507505 412.51877322 -247.74184557 418.32805243 -250.984375 424.15234375 C-252.52662114 426.66231432 -252.52662114 426.66231432 -252.375 428.875 C-253.035 428.875 -253.695 428.875 -254.375 428.875 C-254.80079346 429.89625977 -255.22658691 430.91751953 -255.6652832 431.96972656 C-257.19057276 435.52637246 -258.91547752 438.9399674 -260.73046875 442.359375 C-261.35892238 443.55328099 -261.98717184 444.74729447 -262.61523438 445.94140625 C-263.59378301 447.79479662 -264.57425616 449.64710584 -265.55834961 451.49755859 C-266.51698491 453.30285794 -267.4679672 455.11202114 -268.41796875 456.921875 C-268.98539795 457.99276367 -269.55282715 459.06365234 -270.13745117 460.16699219 C-271.58282465 462.83353131 -271.58282465 462.83353131 -271.375 465.875 C-272.035 465.875 -272.695 465.875 -273.375 465.875 C-273.63285278 466.39070557 -273.89070557 466.90641113 -274.15637207 467.43774414 C-286.8515625 492.828125 -286.8515625 492.828125 -288.32250977 495.76904297 C-289.29409225 497.71285837 -290.26463485 499.65719389 -291.23413086 501.60205078 C-293.40185121 505.94788288 -295.57943208 510.28687782 -297.80859375 514.6015625 C-298.36081604 515.67893677 -298.36081604 515.67893677 -298.92419434 516.77807617 C-299.58929188 518.07345021 -300.26059345 519.36567116 -300.94006348 520.65356445 C-303.57613814 525.81052275 -305.375 531.03496025 -305.375 536.875 C-306.035 536.875 -306.695 536.875 -307.375 536.875 C-312.45141436 554.10152087 -304.06794286 573.67141151 -296.375 588.875 C-295.39784604 590.22516589 -294.40470259 591.56446944 -293.375 592.875 C-292.6875 595.125 -292.6875 595.125 -292.375 596.875 C-291.715 596.875 -291.055 596.875 -290.375 596.875 C-290.1275 597.596875 -289.88 598.31875 -289.625 599.0625 C-288.25546785 602.14394735 -286.51502978 604.2810245 -284.375 606.875 C-283.95992187 607.596875 -283.54484375 608.31875 -283.1171875 609.0625 C-280.83630738 612.74463831 -278.17620521 616.02523202 -275.4375 619.375 C-274.86845947 620.07334961 -274.29941895 620.77169922 -273.71313477 621.49121094 C-264.73176008 632.75027813 -264.73176008 632.75027813 -254.24523926 642.50440979 C-251.52739649 645.94936552 -251.83430293 649.27295724 -251.89257812 653.47631836 C-251.88866562 654.34359558 -251.88475311 655.2108728 -251.88072205 656.10443115 C-251.87474637 657.98741365 -251.8779183 659.87044229 -251.8891449 661.7534008 C-251.90641985 664.7442505 -251.89888867 667.73413433 -251.8848877 670.72499084 C-251.85524179 678.16050285 -251.86836373 685.59583133 -251.88006592 693.03137207 C-251.88831278 699.30400393 -251.88013589 705.57621472 -251.85093689 711.84878731 C-251.8439028 714.77625212 -251.86045236 717.70295142 -251.87805176 720.63035583 C-251.87612483 730.8105873 -251.22625445 739.33172184 -247.375 748.875 C-246.98115112 749.89782578 -246.58730225 750.92065155 -246.18151855 751.97447205 C-245.2795594 754.2906078 -244.34593367 756.58710842 -243.375 758.875 C-242.715 758.875 -242.055 758.875 -241.375 758.875 C-241.375 759.535 -241.375 760.195 -241.375 760.875 C-240.715 760.875 -240.055 760.875 -239.375 760.875 C-239.11074219 761.43832031 -238.84648437 762.00164063 -238.57421875 762.58203125 C-231.90494156 775.33403681 -219.70563103 782.52011009 -206.375 786.875 C-204.88540377 787.25211297 -203.38605596 787.59603582 -201.875 787.875 C-199.04414745 788.39761893 -196.67486644 789.15183442 -193.9765625 790.21875 C-187.90259713 792.54338886 -181.57360483 793.90533151 -175.25 795.375 C-174.59347443 795.52907318 -173.93694885 795.68314636 -173.26052856 795.84188843 C-163.6092536 798.09541051 -153.97264762 799.88919214 -144.11474609 800.98828125 C-137.81336033 801.69899169 -137.81336033 801.69899169 -134.796875 802.91015625 C-131.99392597 804.02681498 -129.3931298 804.17432173 -126.40063477 804.35327148 C-118.62220821 804.86897301 -113.96788605 805.99333363 -108.15234375 811.4609375 C-104.53262282 814.60719282 -100.60660294 816.97901933 -96.5 819.4375 C-95.71915039 819.90663818 -94.93830078 820.37577637 -94.13378906 820.85913086 C-91.88444504 822.20388833 -89.62996377 823.53969564 -87.375 824.875 C-86.18063965 825.59186523 -84.98659534 826.30925745 -83.79296875 827.02734375 C-78.76204234 830.02058676 -73.84424044 832.74807316 -68.375 834.875 C-66.79058505 835.49725293 -65.20735061 836.12251614 -63.625 836.75 C-62.76003906 837.0903125 -61.89507812 837.430625 -61.00390625 837.78125 C-58.46191386 838.8388397 -56.0297563 840.0300571 -53.5625 841.25 C-47.2670638 844.17223686 -40.66715625 845.92134441 -33.98706055 847.73193359 C-29.9768847 848.82225962 -26.12439694 849.93796316 -22.29296875 851.5546875 C-15.04720424 854.34306766 -8.14449585 852.95986998 -1 850.5625 C-0.21343018 850.30686279 0.57313965 850.05122559 1.38354492 849.7878418 C15.40265136 845.08447641 29.42129698 839.537187 42.625 832.875 C44.36620143 832.14530576 46.11585656 831.43531048 47.875 830.75 C51.29570981 829.41503216 51.29570981 829.41503216 54.625 827.875 C54.625 827.215 54.625 826.555 54.625 825.875 C55.51251953 825.63716797 55.51251953 825.63716797 56.41796875 825.39453125 C61.89039168 823.77869348 64.68051995 822.10122863 68.625 817.875 C72.19775632 815.07261926 75.8603521 812.41336179 79.625 809.875 C80.64851563 809.17761719 81.67203125 808.48023438 82.7265625 807.76171875 C87.65765077 805.00721741 93.10435124 804.51749271 98.625 803.75 C100.29079102 803.50080811 100.29079102 803.50080811 101.99023438 803.24658203 C109.17908313 802.18207138 116.38207089 801.2310529 123.58984375 800.3046875 C128.66002846 799.58690073 133.54520849 798.58747867 138.39086914 796.92749023 C141.38168691 795.95418191 144.33477029 795.17680351 147.3984375 794.47265625 C149.0071875 794.09657227 149.0071875 794.09657227 150.6484375 793.71289062 C152.87454 793.1978774 155.10110087 792.68484129 157.328125 792.17382812 C162.60858049 790.93602351 167.68494125 789.61920439 172.72070312 787.60083008 C174.82154012 786.80008798 176.93650364 786.16973646 179.09765625 785.55078125 C190.13344906 782.50521573 190.13344906 782.50521573 198.25390625 774.8203125 C199.72343443 772.7353409 201.27074743 771.34846613 203.25 769.75 C206.47633179 767.07099235 209.07686738 764.22780607 211.625 760.875 C212.03492188 760.3490625 212.44484375 759.823125 212.8671875 759.28125 C216.96249242 753.48168776 218.65631833 746.92945175 220.609375 740.19140625 C221.625 736.875 221.625 736.875 222.625 735.875 C222.65972904 733.07239533 222.63046218 730.29483585 222.56054688 727.49414062 C222.52443876 725.66892085 222.48920261 723.84368367 222.45471191 722.01843262 C222.43544144 721.04401718 222.41617096 720.06960175 222.39631653 719.06565857 C222.28794432 712.80986103 222.25738075 706.55313854 222.21747589 700.29659271 C222.17814301 694.80808771 222.10864019 689.32339261 221.97021484 683.83642578 C220.98823489 643.37142238 220.98823489 643.37142238 229.56774902 633.7989502 C232.43659337 631.24698608 235.35997303 629.07777828 238.6521759 627.10473633 C250.12162628 619.95539148 260.79826567 602.3228938 265.625 589.875 C266.58832163 587.9295733 267.56845724 585.99241 268.5625 584.0625 C272.95549439 575.85181533 272.95549439 575.85181533 274.625 566.875 C275.285 566.875 275.945 566.875 276.625 566.875 C280.57770198 553.39486093 279.154053 536.06606712 273.1328125 523.5 C272.03219301 521.58389561 270.8507267 519.71359004 269.625 517.875 C268.965 517.875 268.305 517.875 267.625 517.875 C267.36203125 516.85792969 267.0990625 515.84085938 266.828125 514.79296875 C265.74398377 511.0183063 264.17677025 507.68528442 262.375 504.1875 C261.66749463 502.79972077 260.96050818 501.41167694 260.25390625 500.0234375 C259.84930176 499.23291992 259.44469727 498.44240234 259.02783203 497.62792969 C256.41309827 492.49675358 253.83543488 487.34694006 251.25720215 482.19735718 C250.32753831 480.34250423 249.39488859 478.48917576 248.46191406 476.63598633 C243.96020279 467.65937453 243.96020279 467.65937453 242.0625 463.21875 C239.95559462 458.31790488 237.43354875 453.6493959 234.9375 448.9375 C234.42638672 447.96748047 233.91527344 446.99746094 233.38867188 445.99804688 C232.13649777 443.62242684 230.88188751 441.24812864 229.625 438.875 C228.965 438.875 228.305 438.875 227.625 438.875 C227.47442139 438.27276611 227.32384277 437.67053223 227.16870117 437.05004883 C225.31836341 430.24666079 222.51493192 424.60979308 218.9375 418.5625 C217.76652869 416.53874338 216.59734345 414.51395256 215.4296875 412.48828125 C214.8119043 411.4204541 214.19412109 410.35262695 213.55761719 409.25244141 C210.50036752 403.90959251 207.54402571 398.51220166 204.58499146 393.11453247 C199.17461112 383.2486018 193.697994 373.4251961 188.08862305 363.6706543 C181.83828966 352.79282472 175.73857875 341.83008592 169.625 330.875 C168.965 330.875 168.305 330.875 167.625 330.875 C167.52227783 330.16851318 167.41955566 329.46202637 167.3137207 328.73413086 C166.52802342 325.47241485 165.25620313 323.04825835 163.60546875 320.12890625 C162.99509766 319.04416016 162.38472656 317.95941406 161.75585938 316.84179688 C161.11455078 315.71837891 160.47324219 314.59496094 159.8125 313.4375 C159.18279297 312.31794922 158.55308594 311.19839844 157.90429688 310.04492188 C153.54970493 302.28106479 153.54970493 302.28106479 148.625 294.875 C147.965 294.875 147.305 294.875 146.625 294.875 C146.52300293 294.00319092 146.42100586 293.13138184 146.31591797 292.2331543 C145.57909625 288.65188833 144.4191251 286.28496916 142.5703125 283.14453125 C141.95542969 282.09458984 141.34054687 281.04464844 140.70703125 279.96289062 C140.06121094 278.88201172 139.41539062 277.80113281 138.75 276.6875 C138.11191406 275.59501953 137.47382812 274.50253906 136.81640625 273.37695312 C133.23829243 267.22615045 133.23829243 267.22615045 128.625 261.875 C127.50659229 259.84227358 126.44804007 257.77594949 125.4375 255.6875 C124.90769531 254.60082031 124.37789062 253.51414062 123.83203125 252.39453125 C123.43371094 251.56308594 123.03539062 250.73164063 122.625 249.875 C121.965 249.875 121.305 249.875 120.625 249.875 C120.25890625 248.616875 119.8928125 247.35875 119.515625 246.0625 C117.55661575 240.20830452 114.54407097 235.14731285 111.375 229.875 C110.76454834 228.84407227 110.15409668 227.81314453 109.52514648 226.75097656 C107.56830169 223.45298506 105.59821878 220.16321752 103.625 216.875 C102.96193848 215.76705078 102.29887695 214.65910156 101.61572266 213.51757812 C99.03706043 209.20911834 96.45723204 204.90142764 93.86425781 200.6015625 C93.2812793 199.63476562 92.69830078 198.66796875 92.09765625 197.671875 C91.52934082 196.73150391 90.96102539 195.79113281 90.37548828 194.82226562 C89.1268262 192.71991575 87.9039548 190.60215874 86.69873047 188.47460938 C86.07498535 187.37439453 85.45124023 186.27417969 84.80859375 185.140625 C84.2458374 184.13290039 83.68308105 183.12517578 83.10327148 182.08691406 C82.61544189 181.35698242 82.1276123 180.62705078 81.625 179.875 C80.965 179.875 80.305 179.875 79.625 179.875 C79.2228125 178.2971875 79.2228125 178.2971875 78.8125 176.6875 C77.75247781 173.28427088 76.71111696 170.74341082 74.625 167.875 C73.965 167.875 73.305 167.875 72.625 167.875 C72.41359375 166.92238281 72.2021875 165.96976563 71.984375 164.98828125 C70.51374394 159.85526286 67.67466181 155.56585845 64.875 151.0625 C63.83854167 149.36848958 62.80208333 147.67447917 61.765625 145.98046875 C61.25064453 145.14950684 60.73566406 144.31854492 60.20507812 143.46240234 C59.10341498 141.65841192 58.02571483 139.83966252 56.96679688 138.01025391 C56.17112305 136.63812744 56.17112305 136.63812744 55.359375 135.23828125 C54.88209961 134.40208252 54.40482422 133.56588379 53.91308594 132.7043457 C53.48801758 132.10066162 53.06294922 131.49697754 52.625 130.875 C51.965 130.875 51.305 130.875 50.625 130.875 C50.295 129.225 49.965 127.575 49.625 125.875 C48.965 125.875 48.305 125.875 47.625 125.875 C47.47732178 125.34277832 47.32964355 124.81055664 47.17749023 124.26220703 C45.22676555 117.80825084 42.24754309 112.44780344 38.6875 106.75 C37.63612856 105.03942511 36.58533604 103.32849424 35.53515625 101.6171875 C35.03902832 100.8137793 34.54290039 100.01037109 34.03173828 99.18261719 C32.16232301 96.11602344 30.38527505 93.00532044 28.625 89.875 C27.965 89.875 27.305 89.875 26.625 89.875 C26.51470459 89.15030518 26.40440918 88.42561035 26.29077148 87.67895508 C25.58294788 84.69789382 24.53959021 82.63542817 22.97265625 80.01171875 C22.17891602 78.68237305 22.17891602 78.68237305 21.36914062 77.32617188 C20.81419922 76.41416016 20.25925781 75.50214844 19.6875 74.5625 C18.86088867 73.16547852 18.86088867 73.16547852 18.01757812 71.74023438 C17.2219043 70.42055664 17.2219043 70.42055664 16.41015625 69.07421875 C15.68131226 67.86511841 15.68131226 67.86511841 14.93774414 66.6315918 C14.50453857 66.0519165 14.07133301 65.47224121 13.625 64.875 C12.965 64.875 12.305 64.875 11.625 64.875 C10.965 62.565 10.305 60.255 9.625 57.875 C8.965 57.875 8.305 57.875 7.625 57.875 C7.44839844 56.9778125 7.27179688 56.080625 7.08984375 55.15625 C5.33324558 49.01356369 1.53063573 43.75295117 -1.8125 38.375 C-9.45397538 26.01272668 -9.45397538 26.01272668 -11.09765625 21.65625 C-12.07169895 18.71547784 -12.07169895 18.71547784 -14.5625 17.9375 C-15.160625 17.916875 -15.75875 17.89625 -16.375 17.875 Z " fill="#E8E8E8" transform="translate(527.375,76.125)"/>
<path d="M0 0 C3.91520443 1.30506814 4.21526123 2.68186229 6.15234375 6.265625 C6.75747803 7.37220459 7.3626123 8.47878418 7.98608398 9.61889648 C8.30390839 10.2103244 8.62173279 10.80175232 8.94918823 11.41110229 C10.286766 13.89986017 11.64473704 16.37728447 13.00135803 18.85569763 C13.68973987 20.11402027 14.37702109 21.37294562 15.06321716 22.63246155 C17.95555461 27.9393635 20.9250201 33.19810989 23.9375 38.4375 C24.41276123 39.26596436 24.88802246 40.09442871 25.37768555 40.94799805 C26.37680546 42.68923644 27.37641165 44.43019589 28.37646484 46.17089844 C31.50928363 51.63001183 34.62840166 57.09696564 37.75 62.5625 C39.11705798 64.95580318 40.48424916 67.34903021 41.8515625 69.7421875 C42.19368271 70.34099731 42.53580292 70.93980713 42.88829041 71.5567627 C44.94655309 75.15860897 47.00704705 78.75916786 49.06942749 82.35865784 C50.75535957 85.30118101 52.44041628 88.24420472 54.125 91.1875 C54.62329315 92.05805527 54.62329315 92.05805527 55.13165283 92.94619751 C60.43187435 102.21070622 65.65267941 111.51793254 70.84765625 120.84179688 C74.85340145 128.00925212 78.96425187 135.1090844 83.125 142.1875 C88.10777954 150.66775438 92.90513777 159.2275134 97.58007812 167.88085938 C101.17897725 174.53131497 104.87123941 181.12323439 108.625 187.6875 C109.13434082 188.57912842 109.64368164 189.47075684 110.16845703 190.3894043 C112.04285384 193.65570838 113.91011159 196.86516738 116 200 C116.24839699 202.54627341 116.24839699 202.54627341 116.24609566 205.66343212 C116.25007775 206.85027637 116.25405985 208.03712061 116.25816262 209.25992984 C116.25233693 210.57022278 116.24651125 211.88051573 116.24050903 213.23051453 C116.24138072 214.63141181 116.24313103 216.03230877 116.24568737 217.433204 C116.2501721 221.29160097 116.24214183 225.14988749 116.23213124 229.00827038 C116.2235152 233.16572073 116.22641559 237.32316457 116.22793579 241.48062134 C116.22898581 248.68663198 116.22269697 255.89260647 116.21146011 263.09860802 C116.19522395 273.51734357 116.18999904 283.9360616 116.18748413 294.35480843 C116.18310406 311.25746358 116.16978652 328.16009946 116.15087891 345.06274414 C116.13252816 361.48461816 116.11836772 377.90648694 116.10986328 394.32836914 C116.10933783 395.34017247 116.10881239 396.3519758 116.10827102 397.39443984 C116.10566099 402.47022806 116.10313356 407.54601631 116.10064721 412.62180459 C116.07990501 454.74788685 116.04303003 496.87393346 116 539 C77.72 539 39.44 539 0 539 C0 508.64 0 478.28 0 447 C-26.4 447 -52.8 447 -80 447 C-80.04010881 424.57917558 -80.04010881 424.57917558 -80.04882812 415.05664062 C-80.05481686 408.54694814 -80.06191797 402.03726965 -80.07543945 395.52758789 C-80.08626735 390.28214298 -80.09227662 385.03671308 -80.09487724 379.79125786 C-80.09673167 377.78529054 -80.10035262 375.77932408 -80.10573006 373.77336311 C-80.11293919 370.97397176 -80.113991 368.17464321 -80.11352539 365.37524414 C-80.11712067 364.53727295 -80.12071594 363.69930176 -80.12442017 362.8359375 C-80.11405216 357.11405216 -80.11405216 357.11405216 -79 356 C-52.93 356 -26.86 356 0 356 C0 238.52 0 121.04 0 0 Z " fill="#F1F1F1" transform="translate(565,230)"/>
<path d="M0 0 C37.29 0 74.58 0 113 0 C113 129.03 113 258.06 113 391 C107.37799366 388.75119746 107.37799366 388.75119746 104.8359375 386.49609375 C104.27648437 386.0067334 103.71703125 385.51737305 103.140625 385.01318359 C102.55796875 384.49320801 101.9753125 383.97323242 101.375 383.4375 C100.13344605 382.35474185 98.89125085 381.27271859 97.6484375 380.19140625 C97.03452148 379.65402832 96.42060547 379.11665039 95.78808594 378.56298828 C93.21070578 376.31006805 90.61812521 374.08068083 88 371.875 C87.175 371.17117188 86.35 370.46734375 85.5 369.7421875 C79.91649499 365.85118244 73.25624309 365.27207826 66.6796875 364.265625 C64.59373136 363.93501343 62.50779455 363.60427983 60.421875 363.2734375 C57.18757656 362.76656983 53.95293413 362.26207702 50.71777344 361.76074219 C33.62824469 359.10166054 16.95512571 355.63324122 0 352 C0 235.84 0 119.68 0 0 Z " fill="#F1F1F1" transform="translate(345,499)"/>
<path d="M0 0 C1.56825086 0.91418166 3.11296857 1.87055994 4.625 2.875 C5.23730469 3.27460937 5.84960938 3.67421875 6.48046875 4.0859375 C18.41503756 13.09831212 25.52942386 30.06072173 32.79003906 42.68896484 C35.73608697 47.80417575 38.71153963 52.90215164 41.6875 58 C42.54939941 59.47726563 42.54939941 59.47726563 43.42871094 60.984375 C54.91984013 80.84761869 54.91984013 80.84761869 67.03588867 100.32983398 C68.57484298 102.79466709 69.96519034 105.29181871 71.33203125 107.85546875 C74.84317625 114.3397913 78.59703903 120.66847163 82.375 127 C83.44877364 128.80477645 84.52183453 130.6099755 85.59489441 132.41517639 C86.30072496 133.60243933 87.00678695 134.78956472 87.71308899 135.97654724 C90.42735605 140.53842748 93.12564552 145.10943497 95.8125 149.6875 C99.57226108 156.08989957 103.34617111 162.48383604 107.125 168.875 C111.29370051 175.925557 115.45382921 182.98099437 119.60107422 190.04418945 C122.57416702 195.10200781 125.56632026 200.14836303 128.56193542 205.19287109 C140.16435983 224.73209988 140.16435983 224.73209988 145.515625 234.1796875 C152.53593921 246.53287731 159.7826104 258.76119845 167 271 C171.27625928 278.25381552 175.46362606 285.55468836 179.625 292.875 C180.95706163 295.2090607 182.29107339 297.54200478 183.625 299.875 C184.29819482 301.05337529 184.97137196 302.23176067 185.64453125 303.41015625 C186.91162756 305.62695 188.17975778 307.84315329 189.44921875 310.05859375 C198.00500067 324.99982297 206.48805969 339.98269648 214.8269043 355.04614258 C218.12079782 360.98802949 221.46314913 366.90173292 224.8125 372.8125 C238.10088406 396.30281997 251.02993444 419.94379248 263.56072998 443.84539795 C264.59178445 445.81165672 265.62413574 447.77722965 266.65673828 449.74267578 C272.97692897 461.78035248 279.21951229 473.82967935 284.90234375 486.18359375 C286.55009334 489.75480089 288.3291643 493.25073178 290.125 496.75 C301.30501387 519.03327707 310.09559529 541.25121602 304.375 566.375 C304.17003906 567.34308594 303.96507812 568.31117188 303.75390625 569.30859375 C301.66414904 578.7441642 298.1101604 587.28221983 293.75 595.875 C293.22575439 596.91116455 293.22575439 596.91116455 292.69091797 597.96826172 C283.58143478 615.79914659 271.55778952 631.97961861 257.5703125 646.29296875 C251.83250849 653.90880901 252.2406913 661.98005605 252.33657074 671.06216431 C252.35987154 673.4892207 252.3606454 675.9153756 252.35528564 678.3425293 C252.34272892 685.23964945 252.3587027 692.13629615 252.41552734 699.03320312 C252.68772977 735.32582744 246.88955867 762.92520558 220.98242188 789.56396484 C204.55049829 806.11947389 184.2927584 815.08088038 161.83886719 820.35009766 C158.58803747 821.12086121 155.35916629 821.97489879 152.125 822.8125 C136.15337273 826.80488994 120.05410421 830.74005367 103.71166992 832.84985352 C96.12891883 833.88647161 90.04243017 836.26885444 83.75 840.6875 C79.25427295 843.77690037 74.72229178 846.69462231 70.01953125 849.45703125 C68.48153851 850.36778388 66.95653237 851.30104311 65.44921875 852.26171875 C47.58927209 863.52057977 27.26180882 870.89276518 7.25 877.3125 C6.48365234 877.55959717 5.71730469 877.80669434 4.92773438 878.0612793 C-23.82430497 887.00642907 -57.13558785 871.36568388 -82.59960938 858.23168945 C-86.5489494 856.15640679 -90.46724127 854.02738796 -94.375 851.875 C-95.03693359 851.51229004 -95.69886719 851.14958008 -96.38085938 850.77587891 C-102.6797398 847.30823101 -108.7690828 843.65470534 -114.6875 839.5625 C-122.76398683 834.14289154 -130.23424574 832.63486385 -139.74023438 831.13720703 C-155.03100784 828.70739789 -170.20984211 825.37158283 -185.18115234 821.43603516 C-187.72471777 820.78556628 -190.27756042 820.18041653 -192.83203125 819.57421875 C-221.02601306 812.75476123 -246.32806422 799.96843859 -262.375 774.875 C-270.17133523 761.74130382 -276.49041743 746.74971037 -276.54858398 731.33422852 C-276.555271 730.59211121 -276.56195801 729.8499939 -276.56884766 729.08538818 C-276.58285249 727.48016023 -276.5947609 725.87491291 -276.60479546 724.26965523 C-276.6212735 721.72616122 -276.64451306 719.18281092 -276.66969299 716.63938904 C-276.74028733 709.40997535 -276.80057418 702.18050419 -276.85180664 694.95092773 C-276.88365787 690.52304523 -276.92494417 686.09533111 -276.97200203 681.66758537 C-276.98797933 679.98396781 -277.00032055 678.30031156 -277.00890923 676.61664009 C-277.02111029 674.25930869 -277.04527858 671.90237105 -277.07202148 669.54516602 C-277.07261063 668.85458603 -277.07319977 668.16400604 -277.07380676 667.45249939 C-277.17288257 660.83700764 -278.72873173 656.19252705 -282.9375 651.125 C-283.65421875 650.25746094 -284.3709375 649.38992188 -285.109375 648.49609375 C-287.25603276 646.01263279 -289.45845976 643.59694817 -291.6875 641.1875 C-313.86232645 616.76084092 -332.98018989 582.52933364 -332.51953125 548.859375 C-331.10513741 519.65405363 -311.81493263 490.26556412 -298.58203125 465.0078125 C-296.42202737 460.88350757 -294.27419952 456.75320957 -292.13671875 452.6171875 C-286.0283062 440.80337658 -279.81009002 429.06258348 -273.40625 417.40625 C-271.30545473 413.58214611 -269.22393144 409.74835999 -267.15625 405.90625 C-260.9089724 394.2997745 -254.52173552 382.79257763 -247.94921875 371.3671875 C-245.5442281 367.18317445 -243.20956407 362.96592959 -240.91796875 358.71875 C-237.13033727 351.73800134 -233.24273198 344.81157982 -229.375 337.875 C-228.98908691 337.18180664 -228.60317383 336.48861328 -228.20556641 335.77441406 C-223.3039396 326.97662236 -218.27898367 318.26057713 -213.15625 309.58984375 C-203.00898731 292.40935152 -193.04333676 275.12259192 -183.08105469 257.83447266 C-172.06726217 238.72897854 -160.9780367 219.66694628 -149.77441406 200.67211914 C-147.33560755 196.5298676 -144.9362756 192.3675165 -142.5625 188.1875 C-138.71383735 181.42550705 -134.75801989 174.72962573 -130.79248047 168.03564453 C-126.06819466 160.05777767 -121.37350525 152.06288362 -116.6875 144.0625 C-115.22919408 141.57290061 -113.77087042 139.08331161 -112.3125 136.59375 C-111.96564148 136.00160706 -111.61878296 135.40946411 -111.26141357 134.79937744 C-108.57647255 130.21665845 -105.88386096 125.63850553 -103.1875 121.0625 C-98.61579478 113.30168941 -94.08165664 105.51906057 -89.54614258 97.73706055 C-85.77689945 91.27191457 -81.99353223 84.81542534 -78.19213867 78.36914062 C-75.84090852 74.37825552 -73.50305196 70.37991082 -71.17578125 66.375 C-64.98271058 55.71838371 -58.75279441 45.0847336 -52.4375 34.5 C-51.83526611 33.48486328 -51.23303223 32.46972656 -50.61254883 31.42382812 C-46.79133179 25.04262296 -42.7502891 18.89016124 -38.375 12.875 C-37.70597656 11.94171875 -37.03695313 11.0084375 -36.34765625 10.046875 C-33.81527379 7.25874699 -30.92426129 5.20417458 -27.8125 3.125 C-26.9472168 2.52751953 -26.9472168 2.52751953 -26.06445312 1.91796875 C-18.23194966 -3.41210858 -8.65654025 -4.14875662 0 0 Z M-6.375 3.875 C-6.705 4.865 -7.035 5.855 -7.375 6.875 C-10.57402639 6.96386184 -13.30177456 6.78558531 -16.375 5.875 C-17.52577953 8.09436052 -18.47349728 10.17752735 -19.25 12.5625 C-20.375 14.875 -20.375 14.875 -22.125 15.8125 C-25.17559749 15.89723882 -27.55095538 14.96610815 -30.375 13.875 C-30.705 14.535 -31.035 15.195 -31.375 15.875 C-32.035 16.865 -32.695 17.855 -33.375 18.875 C-36 19.0625 -36 19.0625 -38.375 18.875 C-37.715 19.205 -37.055 19.535 -36.375 19.875 C-36.705 21.195 -37.035 22.515 -37.375 23.875 C-37.375 23.215 -37.375 22.555 -37.375 21.875 C-38.035 22.205 -38.695 22.535 -39.375 22.875 C-39.375 23.535 -39.375 24.195 -39.375 24.875 C-40.035 25.205 -40.695 25.535 -41.375 25.875 C-41.045 27.195 -40.715 28.515 -40.375 29.875 C-41.365 30.205 -42.355 30.535 -43.375 30.875 C-43.705 32.855 -44.035 34.835 -44.375 36.875 C-45.86 37.37 -45.86 37.37 -47.375 37.875 C-47.375 39.195 -47.375 40.515 -47.375 41.875 C-48.035 42.205 -48.695 42.535 -49.375 42.875 C-48.715 44.525 -48.055 46.175 -47.375 47.875 C-49.3125 47.5 -49.3125 47.5 -51.375 46.875 C-51.705 46.215 -52.035 45.555 -52.375 44.875 C-53.89453709 49.79082077 -53.89453709 49.79082077 -54.375 54.875 C-54.705 53.885 -55.035 52.895 -55.375 51.875 C-56.86 52.37 -56.86 52.37 -58.375 52.875 C-57.715 52.875 -57.055 52.875 -56.375 52.875 C-56.375 54.525 -56.375 56.175 -56.375 57.875 C-57.365 57.875 -58.355 57.875 -59.375 57.875 C-59.9284764 59.95053648 -60.375 61.71865964 -60.375 63.875 C-60.705 64.535 -61.035 65.195 -61.375 65.875 C-62.035 65.545 -62.695 65.215 -63.375 64.875 C-63.519375 65.514375 -63.66375 66.15375 -63.8125 66.8125 C-64.375 68.875 -64.375 68.875 -65.375 69.875 C-65.73662029 71.20094105 -66.07228039 72.53438457 -66.375 73.875 C-65.715 73.875 -65.055 73.875 -64.375 73.875 C-68.125 76.875 -68.125 76.875 -70.375 76.875 C-70.375 78.525 -70.375 80.175 -70.375 81.875 C-71.365 81.875 -72.355 81.875 -73.375 81.875 C-73.375 83.195 -73.375 84.515 -73.375 85.875 C-74.365 86.205 -75.355 86.535 -76.375 86.875 C-76.75718767 88.53114657 -77.08895102 90.19957024 -77.375 91.875 C-77.045 92.205 -76.715 92.535 -76.375 92.875 C-77.365 93.535 -78.355 94.195 -79.375 94.875 C-79.375 94.215 -79.375 93.555 -79.375 92.875 C-80.365 93.37 -80.365 93.37 -81.375 93.875 C-81.045 95.525 -80.715 97.175 -80.375 98.875 C-81.365 98.875 -82.355 98.875 -83.375 98.875 C-83.16875 99.4525 -82.9625 100.03 -82.75 100.625 C-82.28838739 103.39467567 -82.94555055 104.52061267 -84.375 106.875 C-85.365 106.545 -86.355 106.215 -87.375 105.875 C-87.519375 106.514375 -87.66375 107.15375 -87.8125 107.8125 C-88.375 109.875 -88.375 109.875 -89.375 110.875 C-89.72912344 112.20296291 -90.06021554 113.53716607 -90.375 114.875 C-90.705 115.865 -91.035 116.855 -91.375 117.875 C-90.385 117.875 -89.395 117.875 -88.375 117.875 C-89.365 118.535 -90.355 119.195 -91.375 119.875 C-90.715 120.535 -90.055 121.195 -89.375 121.875 C-90.035 122.2875 -90.695 122.7 -91.375 123.125 C-92.035 123.7025 -92.695 124.28 -93.375 124.875 C-93.375 126.195 -93.375 127.515 -93.375 128.875 C-95.3579823 130.8579823 -96.88718307 131.66878573 -99.375 132.875 C-100.365 133.535 -101.355 134.195 -102.375 134.875 C-103.365 134.875 -104.355 134.875 -105.375 134.875 C-105.024375 135.49375 -104.67375 136.1125 -104.3125 136.75 C-104.003125 137.45125 -103.69375 138.1525 -103.375 138.875 C-103.705 139.535 -104.035 140.195 -104.375 140.875 C-105.365 140.545 -106.355 140.215 -107.375 139.875 C-107.705 141.855 -108.035 143.835 -108.375 145.875 C-109.365 146.205 -110.355 146.535 -111.375 146.875 C-111.045 148.195 -110.715 149.515 -110.375 150.875 C-111.014375 151.1225 -111.65375 151.37 -112.3125 151.625 C-114.56241541 152.69062433 -114.56241541 152.69062433 -115.125 155 C-115.2075 155.61875 -115.29 156.2375 -115.375 156.875 C-116.695 156.545 -118.015 156.215 -119.375 155.875 C-118.715 156.205 -118.055 156.535 -117.375 156.875 C-117.705 158.525 -118.035 160.175 -118.375 161.875 C-117.715 161.875 -117.055 161.875 -116.375 161.875 C-117.3340625 162.2771875 -117.3340625 162.2771875 -118.3125 162.6875 C-120.70631686 163.76167752 -120.70631686 163.76167752 -121.375 166.875 C-119.725 166.545 -118.075 166.215 -116.375 165.875 C-116.705 166.473125 -117.035 167.07125 -117.375 167.6875 C-118.58287988 169.92886471 -118.58287988 169.92886471 -118.375 172.875 C-119.695 172.215 -121.015 171.555 -122.375 170.875 C-122.375 169.225 -122.375 167.575 -122.375 165.875 C-124.50008244 169.06262365 -124.8770163 171.14012223 -125.375 174.875 C-126.365 175.205 -127.355 175.535 -128.375 175.875 C-128.045 177.195 -127.715 178.515 -127.375 179.875 C-128.035 180.205 -128.695 180.535 -129.375 180.875 C-129.375 179.885 -129.375 178.895 -129.375 177.875 C-130.365 178.205 -131.355 178.535 -132.375 178.875 C-131.715 178.875 -131.055 178.875 -130.375 178.875 C-130.54 179.49375 -130.705 180.1125 -130.875 180.75 C-131.45134644 182.83563386 -131.45134644 182.83563386 -131.375 184.875 C-132.375 185.875 -133.375 186.875 -134.375 187.875 C-134.705 188.865 -135.035 189.855 -135.375 190.875 C-135.045 191.535 -134.715 192.195 -134.375 192.875 C-135.695 192.875 -137.015 192.875 -138.375 192.875 C-138.045 194.195 -137.715 195.515 -137.375 196.875 C-138.365 196.875 -139.355 196.875 -140.375 196.875 C-142.5269437 200.10291555 -142.57586443 201.15900809 -142.375 204.875 C-143.365 204.875 -144.355 204.875 -145.375 204.875 C-145.375 205.865 -145.375 206.855 -145.375 207.875 C-144.859375 208.349375 -144.34375 208.82375 -143.8125 209.3125 C-143.338125 209.828125 -142.86375 210.34375 -142.375 210.875 C-142.6875 213.0625 -142.6875 213.0625 -143.375 214.875 C-145.355 215.205 -147.335 215.535 -149.375 215.875 C-149.375 216.535 -149.375 217.195 -149.375 217.875 C-150.365 217.545 -151.355 217.215 -152.375 216.875 C-152.375 218.525 -152.375 220.175 -152.375 221.875 C-153.365 221.875 -154.355 221.875 -155.375 221.875 C-155.705 223.525 -156.035 225.175 -156.375 226.875 C-153.735 225.225 -151.095 223.575 -148.375 221.875 C-148.375 222.535 -148.375 223.195 -148.375 223.875 C-149.035 224.205 -149.695 224.535 -150.375 224.875 C-151.035 225.865 -151.695 226.855 -152.375 227.875 C-152.705 228.205 -153.035 228.535 -153.375 228.875 C-154.365 228.545 -155.355 228.215 -156.375 227.875 C-156.705 228.535 -157.035 229.195 -157.375 229.875 C-157.705 229.215 -158.035 228.555 -158.375 227.875 C-159.365 228.205 -160.355 228.535 -161.375 228.875 C-160.715 228.875 -160.055 228.875 -159.375 228.875 C-159.705 230.855 -160.035 232.835 -160.375 234.875 C-160.705 234.215 -161.035 233.555 -161.375 232.875 C-162.365 233.205 -163.355 233.535 -164.375 233.875 C-163.715 233.875 -163.055 233.875 -162.375 233.875 C-162.58125 234.49375 -162.7875 235.1125 -163 235.75 C-163.12375 236.45125 -163.2475 237.1525 -163.375 237.875 C-162.715 238.535 -162.055 239.195 -161.375 239.875 C-162.035 239.875 -162.695 239.875 -163.375 239.875 C-165.36950252 241.47060201 -166.26709242 242.42988122 -166.875 244.9375 C-167.375 246.875 -167.375 246.875 -170.375 248.875 C-170.54 249.535 -170.705 250.195 -170.875 250.875 C-171.375 252.875 -171.375 252.875 -174.375 254.875 C-174.62530977 257.45880177 -174.62530977 257.45880177 -174.375 259.875 C-175.365 259.875 -176.355 259.875 -177.375 259.875 C-177.705 261.525 -178.035 263.175 -178.375 264.875 C-179.035 264.875 -179.695 264.875 -180.375 264.875 C-181.10834429 268.85254128 -181.10834429 268.85254128 -181.375 272.875 C-182.365 272.545 -183.355 272.215 -184.375 271.875 C-184.375 273.525 -184.375 275.175 -184.375 276.875 C-185.365 276.875 -186.355 276.875 -187.375 276.875 C-188.84547336 280.78563224 -188.84547336 280.78563224 -189.375 284.875 C-190.365 285.205 -191.355 285.535 -192.375 285.875 C-192.045 287.525 -191.715 289.175 -191.375 290.875 C-192.035 290.875 -192.695 290.875 -193.375 290.875 C-193.375 289.885 -193.375 288.895 -193.375 287.875 C-194.365 288.205 -195.355 288.535 -196.375 288.875 C-195.715 288.875 -195.055 288.875 -194.375 288.875 C-194.6297514 290.19071603 -194.90434141 291.50260376 -195.1875 292.8125 C-195.41373047 293.90884766 -195.41373047 293.90884766 -195.64453125 295.02734375 C-196.00611328 295.94193359 -196.00611328 295.94193359 -196.375 296.875 C-197.365 297.205 -198.355 297.535 -199.375 297.875 C-199.375 299.525 -199.375 301.175 -199.375 302.875 C-200.365 302.875 -201.355 302.875 -202.375 302.875 C-202.148125 303.473125 -201.92125 304.07125 -201.6875 304.6875 C-201.375 306.875 -201.375 306.875 -202.5625 308.6875 C-204.375 309.875 -204.375 309.875 -206.5625 309.5625 C-207.160625 309.335625 -207.75875 309.10875 -208.375 308.875 C-207.715 309.205 -207.055 309.535 -206.375 309.875 C-206.705 311.525 -207.035 313.175 -207.375 314.875 C-206.715 314.875 -206.055 314.875 -205.375 314.875 C-206.2 315.308125 -207.025 315.74125 -207.875 316.1875 C-209.1125 317.0228125 -209.1125 317.0228125 -210.375 317.875 C-210.375 318.865 -210.375 319.855 -210.375 320.875 C-212.375 322.5625 -212.375 322.5625 -214.375 323.875 C-214.189375 324.49375 -214.00375 325.1125 -213.8125 325.75 C-213.375 327.875 -213.375 327.875 -214.375 329.875 C-215.695 329.215 -217.015 328.555 -218.375 327.875 C-218.354375 328.968125 -218.33375 330.06125 -218.3125 331.1875 C-218.375 334.875 -218.375 334.875 -219.375 337.875 C-218.385 337.875 -217.395 337.875 -216.375 337.875 C-216.375 338.535 -216.375 339.195 -216.375 339.875 C-217.344375 340.349375 -218.31375 340.82375 -219.3125 341.3125 C-222.17977437 342.57693947 -222.17977437 342.57693947 -223.375 343.875 C-223.705 343.215 -224.035 342.555 -224.375 341.875 C-225.035 342.205 -225.695 342.535 -226.375 342.875 C-226.417721 344.54111905 -226.41563832 346.20882885 -226.375 347.875 C-226.045 348.205 -225.715 348.535 -225.375 348.875 C-226.035 349.205 -226.695 349.535 -227.375 349.875 C-227.375 350.535 -227.375 351.195 -227.375 351.875 C-226.385 351.875 -225.395 351.875 -224.375 351.875 C-224.375 352.535 -224.375 353.195 -224.375 353.875 C-225.035 354.205 -225.695 354.535 -226.375 354.875 C-226.375 355.865 -226.375 356.855 -226.375 357.875 C-227.3543879 358.89519573 -228.35395449 359.89649805 -229.375 360.875 C-229.375 361.535 -229.375 362.195 -229.375 362.875 C-230.035 363.205 -230.695 363.535 -231.375 363.875 C-231.375 364.535 -231.375 365.195 -231.375 365.875 C-232.035 366.535 -232.695 367.195 -233.375 367.875 C-233.045 368.205 -232.715 368.535 -232.375 368.875 C-233.695 369.205 -235.015 369.535 -236.375 369.875 C-236.705 369.215 -237.035 368.555 -237.375 367.875 C-238.035 367.875 -238.695 367.875 -239.375 367.875 C-239.75718767 369.53114657 -240.08895102 371.19957024 -240.375 372.875 C-240.045 373.205 -239.715 373.535 -239.375 373.875 C-240.695 374.205 -242.015 374.535 -243.375 374.875 C-244.035 377.185 -244.695 379.495 -245.375 381.875 C-244.385 381.545 -243.395 381.215 -242.375 380.875 C-241.715 381.535 -241.055 382.195 -240.375 382.875 C-241.1175 382.99875 -241.86 383.1225 -242.625 383.25 C-245.17641485 383.82986701 -247.1017573 384.61208739 -249.375 385.875 C-249.2925 386.57625 -249.21 387.2775 -249.125 388 C-249.45946819 391.84638418 -251.00996961 393.88393216 -253.375 396.875 C-254.035 396.875 -254.695 396.875 -255.375 396.875 C-255.705 399.185 -256.035 401.495 -256.375 403.875 C-257.365 403.875 -258.355 403.875 -259.375 403.875 C-260.07199552 405.32881897 -260.75733866 406.78822953 -261.4375 408.25 C-261.82035156 409.06210937 -262.20320313 409.87421875 -262.59765625 410.7109375 C-262.85417969 411.42507813 -263.11070312 412.13921875 -263.375 412.875 C-263.045 413.535 -262.715 414.195 -262.375 414.875 C-262.375 415.205 -262.375 415.535 -262.375 415.875 C-263.035 416.535 -263.695 417.195 -264.375 417.875 C-265.035 417.545 -265.695 417.215 -266.375 416.875 C-268.88403749 422.10216144 -270.51449612 426.24933053 -268.6875 432.0625 C-268.584375 432.660625 -268.48125 433.25875 -268.375 433.875 C-269.625 435.625 -269.625 435.625 -271.375 436.875 C-272.365 436.875 -273.355 436.875 -274.375 436.875 C-274.82875 437.803125 -275.2825 438.73125 -275.75 439.6875 C-277.375 442.875 -277.375 442.875 -279.375 445.875 C-280.035 445.545 -280.695 445.215 -281.375 444.875 C-281.705 446.855 -282.035 448.835 -282.375 450.875 C-281.715 450.875 -281.055 450.875 -280.375 450.875 C-280.9525 451.555625 -281.53 452.23625 -282.125 452.9375 C-284.57335514 456.13396365 -286.43950515 459.34963438 -288.375 462.875 C-289.035 462.545 -289.695 462.215 -290.375 461.875 C-290.849375 462.968125 -291.32375 464.06125 -291.8125 465.1875 C-292.07933594 465.80238281 -292.34617187 466.41726563 -292.62109375 467.05078125 C-293.27461942 468.63211021 -293.83391802 470.25175406 -294.375 471.875 C-294.808125 472.43574219 -295.24125 472.99648438 -295.6875 473.57421875 C-298.01235803 476.74399046 -299.64531418 480.16635387 -301.375 483.6875 C-301.71789062 484.37392578 -302.06078125 485.06035156 -302.4140625 485.76757812 C-307.30609168 495.31748135 -307.30609168 495.31748135 -308.375 505.875 C-308.705 505.545 -309.035 505.215 -309.375 504.875 C-312.67743789 507.72710545 -313.9141416 510.85874449 -314.875 515.0625 C-315.375 516.875 -315.375 516.875 -317.375 518.875 C-316.88 520.36 -316.88 520.36 -316.375 521.875 C-317.365 522.205 -318.355 522.535 -319.375 522.875 C-318.715 523.205 -318.055 523.535 -317.375 523.875 C-317.375 524.535 -317.375 525.195 -317.375 525.875 C-318.365 526.205 -319.355 526.535 -320.375 526.875 C-319.715 527.205 -319.055 527.535 -318.375 527.875 C-318.82875 528.225625 -319.2825 528.57625 -319.75 528.9375 C-322.07193864 531.7059653 -322.63725143 534.3706943 -323.375 537.875 C-323.11000396 540.20808448 -323.11000396 540.20808448 -322.375 541.875 C-323.035 542.205 -323.695 542.535 -324.375 542.875 C-324.045 543.535 -323.715 544.195 -323.375 544.875 C-324.035 545.535 -324.695 546.195 -325.375 546.875 C-325.61787489 549.31512949 -325.61787489 549.31512949 -325.5 552 C-325.48195313 552.91007813 -325.46390625 553.82015625 -325.4453125 554.7578125 C-325.42210937 555.45648437 -325.39890625 556.15515625 -325.375 556.875 C-324.715 556.875 -324.055 556.875 -323.375 556.875 C-323.045 557.535 -322.715 558.195 -322.375 558.875 C-323.035 558.875 -323.695 558.875 -324.375 558.875 C-324.375 559.535 -324.375 560.195 -324.375 560.875 C-323.715 561.205 -323.055 561.535 -322.375 561.875 C-322.601875 562.6175 -322.82875 563.36 -323.0625 564.125 C-323.45861931 567.6108499 -322.44528856 568.20087728 -320.375 570.875 C-320.53871094 571.48730469 -320.70242188 572.09960938 -320.87109375 572.73046875 C-321.49827711 575.39964445 -320.980412 576.6220112 -319.9375 579.125 C-319.50630859 580.18460938 -319.50630859 580.18460938 -319.06640625 581.265625 C-318.83824219 581.79671875 -318.61007812 582.3278125 -318.375 582.875 C-317.715 582.875 -317.055 582.875 -316.375 582.875 C-316.375 583.535 -316.375 584.195 -316.375 584.875 C-317.365 585.205 -318.355 585.535 -319.375 585.875 C-318.055 586.205 -316.735 586.535 -315.375 586.875 C-315.705 587.865 -316.035 588.855 -316.375 589.875 C-315.385 590.205 -314.395 590.535 -313.375 590.875 C-312.75 593.25 -312.75 593.25 -312.375 595.875 C-313.035 596.535 -313.695 597.195 -314.375 597.875 C-313.715 597.875 -313.055 597.875 -312.375 597.875 C-311.715 599.195 -311.055 600.515 -310.375 601.875 C-310.045 601.215 -309.715 600.555 -309.375 599.875 C-306.29807692 606.275 -306.29807692 606.275 -306.6875 609.3125 C-306.914375 609.828125 -307.14125 610.34375 -307.375 610.875 C-306.055 610.875 -304.735 610.875 -303.375 610.875 C-303.375 612.525 -303.375 614.175 -303.375 615.875 C-304.035 616.205 -304.695 616.535 -305.375 616.875 C-304.385 616.875 -303.395 616.875 -302.375 616.875 C-302.375 615.885 -302.375 614.895 -302.375 613.875 C-302.045 614.865 -301.715 615.855 -301.375 616.875 C-300.715 617.205 -300.055 617.535 -299.375 617.875 C-299.375 619.525 -299.375 621.175 -299.375 622.875 C-298.385 622.875 -297.395 622.875 -296.375 622.875 C-296.375 624.525 -296.375 626.175 -296.375 627.875 C-295.385 627.875 -294.395 627.875 -293.375 627.875 C-293.375 629.195 -293.375 630.515 -293.375 631.875 C-292.055 632.205 -290.735 632.535 -289.375 632.875 C-289.375 634.195 -289.375 635.515 -289.375 636.875 C-287.725 637.205 -286.075 637.535 -284.375 637.875 C-283.9728125 639.5765625 -283.9728125 639.5765625 -283.5625 641.3125 C-283.170625 642.488125 -282.77875 643.66375 -282.375 644.875 C-281.385 645.205 -280.395 645.535 -279.375 645.875 C-279.705 644.555 -280.035 643.235 -280.375 641.875 C-278.375 643.875 -278.375 643.875 -277.375 646.4375 C-276.62629886 649.02341441 -276.62629886 649.02341441 -274.375 649.875 C-273.32147157 652.18465848 -272.31780904 654.5179774 -271.375 656.875 C-270.385 656.875 -269.395 656.875 -268.375 656.875 C-269.365 657.535 -270.355 658.195 -271.375 658.875 C-270.88 660.36 -270.88 660.36 -270.375 661.875 C-269.715 661.875 -269.055 661.875 -268.375 661.875 C-268.70097168 662.92171875 -269.02694336 663.9684375 -269.36279297 665.046875 C-270.84781497 671.02428909 -270.62274434 677.00177984 -270.5703125 683.125 C-270.56606766 685.00578247 -270.56606766 685.00578247 -270.56173706 686.92456055 C-270.55248144 690.2322465 -270.53456217 693.53973182 -270.5123291 696.84735107 C-270.49174364 700.23284469 -270.48270839 703.61836787 -270.47265625 707.00390625 C-270.45066874 713.62768168 -270.41724576 720.25132445 -270.375 726.875 C-269.715 727.205 -269.055 727.535 -268.375 727.875 C-268.58125 728.65875 -268.7875 729.4425 -269 730.25 C-269.12375 731.11625 -269.2475 731.9825 -269.375 732.875 C-268.715 733.535 -268.055 734.195 -267.375 734.875 C-268.035 735.205 -268.695 735.535 -269.375 735.875 C-269.045 736.535 -268.715 737.195 -268.375 737.875 C-268.1584375 738.8340625 -268.1584375 738.8340625 -267.9375 739.8125 C-267.41452847 742.15828737 -267.41452847 742.15828737 -265.375 744.875 C-265.375 745.865 -265.375 746.855 -265.375 747.875 C-264.97945147 752.16477923 -264.97945147 752.16477923 -262.8125 755.75 C-262.338125 756.12125 -261.86375 756.4925 -261.375 756.875 C-262.035 757.205 -262.695 757.535 -263.375 757.875 C-262.776875 758.596875 -262.17875 759.31875 -261.5625 760.0625 C-256.27884615 766.85576923 -256.27884615 766.85576923 -256.6875 771.1875 C-256.914375 772.074375 -257.14125 772.96125 -257.375 773.875 C-256.715 773.875 -256.055 773.875 -255.375 773.875 C-255.045 773.215 -254.715 772.555 -254.375 771.875 C-253.88 773.36 -253.88 773.36 -253.375 774.875 C-252.385 775.535 -251.395 776.195 -250.375 776.875 C-250.87 779.35 -250.87 779.35 -251.375 781.875 C-250.385 781.545 -249.395 781.215 -248.375 780.875 C-247.00766972 781.82798777 -245.67235507 782.82874591 -244.375 783.875 C-243.715 783.875 -243.055 783.875 -242.375 783.875 C-242.375 785.195 -242.375 786.515 -242.375 787.875 C-239.94827433 789.66469026 -239.94827433 789.66469026 -237.375 790.875 C-238.695 790.545 -240.015 790.215 -241.375 789.875 C-240.88 791.36 -240.88 791.36 -240.375 792.875 C-238.9209375 792.8440625 -238.9209375 792.8440625 -237.4375 792.8125 C-234.375 792.875 -234.375 792.875 -233.375 793.875 C-234.365 793.875 -235.355 793.875 -236.375 793.875 C-236.045 794.535 -235.715 795.195 -235.375 795.875 C-233.725 795.215 -232.075 794.555 -230.375 793.875 C-230.045 794.535 -229.715 795.195 -229.375 795.875 C-230.365 795.875 -231.355 795.875 -232.375 795.875 C-232.045 797.195 -231.715 798.515 -231.375 799.875 C-231.375 798.885 -231.375 797.895 -231.375 796.875 C-229.1875 796.125 -229.1875 796.125 -226.375 795.875 C-223.82434878 797.57543414 -221.83063024 799.38432128 -219.75 801.625 C-218.31473973 803.2113364 -218.31473973 803.2113364 -215.375 802.875 C-214.385 803.535 -213.395 804.195 -212.375 804.875 C-212.375 803.885 -212.375 802.895 -212.375 801.875 C-210.89 804.35 -210.89 804.35 -209.375 806.875 C-208.75625 806.66875 -208.1375 806.4625 -207.5 806.25 C-206.448125 806.064375 -206.448125 806.064375 -205.375 805.875 C-204.715 806.535 -204.055 807.195 -203.375 807.875 C-200.47845919 808.96924875 -197.74551733 809.81468323 -194.6875 810.3125 C-192.05799574 810.95210914 -191.07483452 811.81730558 -189.375 813.875 C-188.385 813.215 -187.395 812.555 -186.375 811.875 C-182.36913869 812.19125221 -179.73817468 813.7843779 -176.375 815.875 C-175.715 815.875 -175.055 815.875 -174.375 815.875 C-174.045 815.215 -173.715 814.555 -173.375 813.875 C-172.715 813.545 -172.055 813.215 -171.375 812.875 C-172.365 811.39 -172.365 811.39 -173.375 809.875 C-172.715 809.875 -172.055 809.875 -171.375 809.875 C-171.045 810.535 -170.715 811.195 -170.375 811.875 C-169.055 811.875 -167.735 811.875 -166.375 811.875 C-163.9816852 812.29383009 -161.65626802 812.79829054 -159.3125 813.4375 C-157.05575284 814.02184058 -157.05575284 814.02184058 -153.375 813.875 C-151.82572968 814.14731202 -150.28329683 814.46122631 -148.75 814.8125 C-147.97398437 814.98652344 -147.19796875 815.16054688 -146.3984375 815.33984375 C-144.375 815.875 -144.375 815.875 -142.375 816.875 C-141.385 816.545 -140.395 816.215 -139.375 815.875 C-137.4375 816.25 -137.4375 816.25 -135.375 816.875 C-134.715 817.019375 -134.055 817.16375 -133.375 817.3125 C-131.375 817.875 -131.375 817.875 -129.4375 818.875 C-127.35272667 820.00569822 -127.35272667 820.00569822 -124.75 820.3125 C-122.375 820.875 -122.375 820.875 -120.375 823.875 C-120.375 824.865 -120.375 825.855 -120.375 826.875 C-119.385 826.875 -118.395 826.875 -117.375 826.875 C-117.375 827.865 -117.375 828.855 -117.375 829.875 C-115.725 829.545 -114.075 829.215 -112.375 828.875 C-112.375 830.195 -112.375 831.515 -112.375 832.875 C-111.055 832.545 -109.735 832.215 -108.375 831.875 C-108.375 832.535 -108.375 833.195 -108.375 833.875 C-109.035 834.205 -109.695 834.535 -110.375 834.875 C-108.725 835.205 -107.075 835.535 -105.375 835.875 C-106.035 835.875 -106.695 835.875 -107.375 835.875 C-107.045 837.195 -106.715 838.515 -106.375 839.875 C-106.375 838.885 -106.375 837.895 -106.375 836.875 C-105.055 836.875 -103.735 836.875 -102.375 836.875 C-103.035 837.535 -103.695 838.195 -104.375 838.875 C-102.065 839.205 -99.755 839.535 -97.375 839.875 C-97.045 840.865 -96.715 841.855 -96.375 842.875 C-92.39745872 843.60834429 -92.39745872 843.60834429 -88.375 843.875 C-86.375 845.20833333 -84.375 846.54166667 -82.375 847.875 C-80.72880887 848.59073527 -79.06771945 849.2775696 -77.375 849.875 C-77.705 851.855 -78.035 853.835 -78.375 855.875 C-77.4675 855.50375 -76.56 855.1325 -75.625 854.75 C-72.375 853.875 -72.375 853.875 -70.125 854.75 C-69.5475 855.12125 -68.97 855.4925 -68.375 855.875 C-67.715 855.875 -67.055 855.875 -66.375 855.875 C-66.045 856.535 -65.715 857.195 -65.375 857.875 C-64.715 857.875 -64.055 857.875 -63.375 857.875 C-63.375 857.215 -63.375 856.555 -63.375 855.875 C-62.715 856.205 -62.055 856.535 -61.375 856.875 C-61.375 857.535 -61.375 858.195 -61.375 858.875 C-58.25302522 857.5660428 -58.25302522 857.5660428 -56.375 854.875 C-55.59125 855.225625 -54.8075 855.57625 -54 855.9375 C-53.13375 856.246875 -52.2675 856.55625 -51.375 856.875 C-50.715 856.545 -50.055 856.215 -49.375 855.875 C-49.375 856.865 -49.375 857.855 -49.375 858.875 C-50.365 859.535 -51.355 860.195 -52.375 860.875 C-50.32266315 863.1227975 -49.36832739 863.8772242 -46.375 864.875 C-46.375 863.885 -46.375 862.895 -46.375 861.875 C-45.715 863.195 -45.055 864.515 -44.375 865.875 C-43.75625 865.66875 -43.1375 865.4625 -42.5 865.25 C-41.79875 865.12625 -41.0975 865.0025 -40.375 864.875 C-39.715 865.535 -39.055 866.195 -38.375 866.875 C-33.96104543 868.36017193 -33.96104543 868.36017193 -29.375 868.875 C-28.715 869.535 -28.055 870.195 -27.375 870.875 C-27.045 870.545 -26.715 870.215 -26.375 869.875 C-25.055 870.535 -23.735 871.195 -22.375 871.875 C-22.045 870.225 -21.715 868.575 -21.375 866.875 C-22.035 866.545 -22.695 866.215 -23.375 865.875 C-20.375 865.875 -20.375 865.875 -18.375 866.875 C-18.375 866.215 -18.375 865.555 -18.375 864.875 C-16.395 864.875 -14.415 864.875 -12.375 864.875 C-12.045 865.535 -11.715 866.195 -11.375 866.875 C-8.08424004 866.49595792 -8.08424004 866.49595792 -5.375 864.875 C-3.95352704 864.29257092 -2.51231304 863.75779049 -1.0625 863.25 C-0.28261719 862.96898437 0.49726562 862.68796875 1.30078125 862.3984375 C3.84575772 861.82528314 5.1660728 862.14681984 7.625 862.875 C9.54165365 862.1266467 9.54165365 862.1266467 11.625 860.875 C15.90660697 858.97206357 20.18337507 857.35554164 24.625 855.875 C24.955 855.545 25.285 855.215 25.625 854.875 C26.285 855.535 26.945 856.195 27.625 856.875 C28.945 855.555 30.265 854.235 31.625 852.875 C32.285 853.535 32.945 854.195 33.625 854.875 C34.3675 854.070625 35.11 853.26625 35.875 852.4375 C38.48464759 850.00578292 39.31672658 849.46576311 42.625 848.875 C42.955 848.215 43.285 847.555 43.625 846.875 C44.3675 846.730625 45.11 846.58625 45.875 846.4375 C48.96299444 845.80586477 51.00819437 844.59461513 53.625 842.875 C53.295 843.865 52.965 844.855 52.625 845.875 C53.676875 845.71 54.72875 845.545 55.8125 845.375 C58.82968796 844.97930322 61.59593972 844.78321029 64.625 844.875 C64.625 843.555 64.625 842.235 64.625 840.875 C66.275 840.875 67.925 840.875 69.625 840.875 C69.955 841.535 70.285 842.195 70.625 842.875 C70.625 841.885 70.625 840.895 70.625 839.875 C69.965 839.875 69.305 839.875 68.625 839.875 C68.955 838.885 69.285 837.895 69.625 836.875 C71.275 837.205 72.925 837.535 74.625 837.875 C74.625 837.215 74.625 836.555 74.625 835.875 C75.945 836.205 77.265 836.535 78.625 836.875 C78.625 836.215 78.625 835.555 78.625 834.875 C77.635 834.875 76.645 834.875 75.625 834.875 C76.615 834.545 77.605 834.215 78.625 833.875 C78.955 833.215 79.285 832.555 79.625 831.875 C81.275 832.205 82.925 832.535 84.625 832.875 C84.625 832.215 84.625 831.555 84.625 830.875 C84.295 830.545 83.965 830.215 83.625 829.875 C84.676875 829.606875 85.72875 829.33875 86.8125 829.0625 C90.52975818 828.08160786 90.52975818 828.08160786 93.125 826.3125 C97.39973043 823.85453 101.78099126 823.875 106.625 823.875 C108.30239862 822.89310813 109.96967377 821.89366229 111.625 820.875 C113.625 820.875 115.625 820.875 117.625 820.875 C118.305625 820.524375 118.98625 820.17375 119.6875 819.8125 C120.326875 819.503125 120.96625 819.19375 121.625 818.875 C122.285 819.205 122.945 819.535 123.625 819.875 C125.30154729 819.59557545 126.97108154 819.26671753 128.625 818.875 C128.955 819.865 129.285 820.855 129.625 821.875 C130.615 820.885 131.605 819.895 132.625 818.875 C133.285 819.535 133.945 820.195 134.625 820.875 C134.625 819.885 134.625 818.895 134.625 817.875 C137.42962366 816.47268817 139.54619224 815.53787258 142.625 816.5 C143.285 816.62375 143.945 816.7475 144.625 816.875 C145.99233028 815.92201223 147.32764493 814.92125409 148.625 813.875 C154.625 813.875 154.625 813.875 156.625 814.875 C157.615 813.885 158.605 812.895 159.625 811.875 C159.955 812.535 160.285 813.195 160.625 813.875 C160.955 813.215 161.285 812.555 161.625 811.875 C162.285 812.535 162.945 813.195 163.625 813.875 C164.285 811.895 164.945 809.915 165.625 807.875 C163.00386292 807.875 161.11564888 808.18792445 158.625 808.875 C158.625 808.215 158.625 807.555 158.625 806.875 C159.5840625 806.689375 159.5840625 806.689375 160.5625 806.5 C161.243125 806.29375 161.92375 806.0875 162.625 805.875 C162.955 805.215 163.285 804.555 163.625 803.875 C165.935 804.205 168.245 804.535 170.625 804.875 C170.955 806.195 171.285 807.515 171.625 808.875 C172.2025 808.50375 172.78 808.1325 173.375 807.75 C175.625 806.875 175.625 806.875 177.875 807.75 C178.4525 808.12125 179.03 808.4925 179.625 808.875 C179.9653125 807.946875 179.9653125 807.946875 180.3125 807 C182.04202823 804.19981143 183.5616938 803.98892953 186.625 802.875 C189.91748108 801.04182624 189.91748108 801.04182624 192.625 798.875 C192.625 797.885 192.625 796.895 192.625 795.875 C192.955 796.535 193.285 797.195 193.625 797.875 C195.605 797.875 197.585 797.875 199.625 797.875 C199.625 797.215 199.625 796.555 199.625 795.875 C199.295 795.545 198.965 795.215 198.625 794.875 C199.615 794.875 200.605 794.875 201.625 794.875 C201.955 795.865 202.285 796.855 202.625 797.875 C202.625 796.225 202.625 794.575 202.625 792.875 C204.275 792.875 205.925 792.875 207.625 792.875 C206.305 792.545 204.985 792.215 203.625 791.875 C205.605 791.215 207.585 790.555 209.625 789.875 C209.955 790.535 210.285 791.195 210.625 791.875 C211.73040926 789.08581851 211.73040926 789.08581851 211.625 786.875 C213.59680605 785.05141627 215.68118027 783.40497206 217.77734375 781.7265625 C219.79697244 779.70266398 220.07379043 778.60203684 220.625 775.875 C221.285 775.545 221.945 775.215 222.625 774.875 C222.295 775.865 221.965 776.855 221.625 777.875 C223.275 777.215 224.925 776.555 226.625 775.875 C225.965 774.885 225.305 773.895 224.625 772.875 C225.285 771.885 225.945 770.895 226.625 769.875 C226.625 770.535 226.625 771.195 226.625 771.875 C227.615 771.545 228.605 771.215 229.625 770.875 C228.965 770.875 228.305 770.875 227.625 770.875 C227.955 769.555 228.285 768.235 228.625 766.875 C228.625 767.535 228.625 768.195 228.625 768.875 C229.615 768.545 230.605 768.215 231.625 767.875 C230.965 767.875 230.305 767.875 229.625 767.875 C229.625 766.885 229.625 765.895 229.625 764.875 C230.285 764.875 230.945 764.875 231.625 764.875 C231.5940625 763.51375 231.5940625 763.51375 231.5625 762.125 C231.6139755 759.44827412 231.8465017 757.40511948 232.625 754.875 C233.5840625 754.7203125 233.5840625 754.7203125 234.5625 754.5625 C235.243125 754.335625 235.92375 754.10875 236.625 753.875 C237.95833333 750.875 237.95833333 750.875 236.625 747.875 C237.615 747.545 238.605 747.215 239.625 746.875 C240.285 745.885 240.945 744.895 241.625 743.875 C242.615 743.215 243.605 742.555 244.625 741.875 C243.305 741.215 241.985 740.555 240.625 739.875 C241.285 738.555 241.945 737.235 242.625 735.875 C240.975 735.215 239.325 734.555 237.625 733.875 C241.375 731.875 241.375 731.875 243.625 731.875 C243.625 731.215 243.625 730.555 243.625 729.875 C243.625 728.875 243.625 728.875 244.625 726.875 C243.73336423 724.75816159 243.73336423 724.75816159 242.625 722.875 C243.285 721.885 243.945 720.895 244.625 719.875 C244.92270876 717.15974547 244.92270876 717.15974547 244.86791992 714.05834961 C244.87099655 712.86378647 244.87407318 711.66922333 244.87724304 710.4384613 C244.87005753 709.14779251 244.86287201 707.85712372 244.85546875 706.52734375 C244.85427648 705.19120834 244.85382389 703.85507208 244.8540802 702.51893616 C244.85251674 699.72049707 244.84423694 696.92218615 244.83081055 694.1237793 C244.81380445 690.53345516 244.80999676 686.94327165 244.81075573 683.35291195 C244.81048408 680.59488071 244.80500398 677.83688032 244.79775429 675.07885933 C244.7930175 673.11010743 244.79129138 671.14134903 244.78959656 669.17259216 C244.78002678 667.38547569 244.78002678 667.38547569 244.77026367 665.56225586 C244.76645187 664.50985214 244.76264008 663.45744843 244.75871277 662.37315369 C244.79154897 659.87579053 244.79154897 659.87579053 243.625 657.875 C244.285 657.545 244.945 657.215 245.625 656.875 C246.38902678 653.43687949 246.625 650.40971921 246.625 646.875 C246.955 647.205 247.285 647.535 247.625 647.875 C248.615 647.545 249.605 647.215 250.625 646.875 C249.965 646.875 249.305 646.875 248.625 646.875 C248.955 645.885 249.285 644.895 249.625 643.875 C250.615 643.875 251.605 643.875 252.625 643.875 C252.728125 643.318125 252.83125 642.76125 252.9375 642.1875 C253.75633577 639.43323422 255.08353781 637.28772343 256.625 634.875 C256.625 635.535 256.625 636.195 256.625 636.875 C257.945 636.545 259.265 636.215 260.625 635.875 C260.295 635.215 259.965 634.555 259.625 633.875 C260.55946535 631.84355359 261.55724776 629.83966413 262.625 627.875 C262.955 628.865 263.285 629.855 263.625 630.875 C264.285 630.215 264.945 629.555 265.625 628.875 C265.625 627.555 265.625 626.235 265.625 624.875 C265.955 624.215 266.285 623.555 266.625 622.875 C266.625 623.865 266.625 624.855 266.625 625.875 C267.615 625.545 268.605 625.215 269.625 624.875 C268.965 624.545 268.305 624.215 267.625 623.875 C268.285 622.225 268.945 620.575 269.625 618.875 C269.625 619.865 269.625 620.855 269.625 621.875 C270.285 621.545 270.945 621.215 271.625 620.875 C271.5940625 619.4209375 271.5940625 619.4209375 271.5625 617.9375 C271.625 614.875 271.625 614.875 272.625 613.875 C272.625 615.195 272.625 616.515 272.625 617.875 C273.285 617.545 273.945 617.215 274.625 616.875 C274.625 615.885 274.625 614.895 274.625 613.875 C275.61268341 611.15887064 276.22974173 610.10750486 278.75 608.625 C279.36875 608.3775 279.9875 608.13 280.625 607.875 C279.965 607.875 279.305 607.875 278.625 607.875 C278.295 606.555 277.965 605.235 277.625 603.875 C278.285 603.875 278.945 603.875 279.625 603.875 C279.625 604.535 279.625 605.195 279.625 605.875 C280.615 605.545 281.605 605.215 282.625 604.875 C281.965 604.875 281.305 604.875 280.625 604.875 C280.94372727 597.863 283.89330315 591.76031295 287.625 585.875 C288.615 585.545 289.605 585.215 290.625 584.875 C290.625 584.215 290.625 583.555 290.625 582.875 C289.965 582.875 289.305 582.875 288.625 582.875 C290.625 580.875 290.625 580.875 292.625 579.875 C292.625 579.215 292.625 578.555 292.625 577.875 C292.295 577.545 291.965 577.215 291.625 576.875 C292.285 576.215 292.945 575.555 293.625 574.875 C293.295 574.215 292.965 573.555 292.625 572.875 C293.615 573.205 294.605 573.535 295.625 573.875 C296.285 573.215 296.945 572.555 297.625 571.875 C296.305 571.545 294.985 571.215 293.625 570.875 C294.099375 570.441875 294.57375 570.00875 295.0625 569.5625 C296.86186957 567.85190387 296.86186957 567.85190387 297.625 564.875 C297.33130173 563.53237935 296.9971042 562.19803717 296.625 560.875 C296.625 559.885 296.625 558.895 296.625 557.875 C297.285 557.545 297.945 557.215 298.625 556.875 C298.625 556.215 298.625 555.555 298.625 554.875 C297.965 554.875 297.305 554.875 296.625 554.875 C297.285 553.885 297.945 552.895 298.625 551.875 C299.08415507 548.90657342 299.08415507 548.90657342 299.25 545.6875 C299.32476563 544.60082031 299.39953125 543.51414062 299.4765625 542.39453125 C299.52554688 541.56308594 299.57453125 540.73164062 299.625 539.875 C298.965 539.875 298.305 539.875 297.625 539.875 C297.955 539.215 298.285 538.555 298.625 537.875 C297.965 537.545 297.305 537.215 296.625 536.875 C296.810625 536.318125 296.99625 535.76125 297.1875 535.1875 C297.70051165 532.475867 297.2890724 530.53128961 296.625 527.875 C295.635 527.545 294.645 527.215 293.625 526.875 C292.31464993 523.70257352 291.625 521.31618336 291.625 517.875 C292.285 517.545 292.945 517.215 293.625 516.875 C292.305 516.875 290.985 516.875 289.625 516.875 C289.295 514.565 288.965 512.255 288.625 509.875 C289.615 509.215 290.605 508.555 291.625 507.875 C291.295 507.215 290.965 506.555 290.625 505.875 C288.09766765 505.21944881 288.09766765 505.21944881 285.625 504.875 C285.625 506.525 285.625 508.175 285.625 509.875 C284.965 509.875 284.305 509.875 283.625 509.875 C282.965 507.235 282.305 504.595 281.625 501.875 C282.615 501.875 283.605 501.875 284.625 501.875 C285.96279383 499.0269179 285.96279383 499.0269179 284.734375 497.04296875 C284.06148437 496.06263672 284.06148437 496.06263672 283.375 495.0625 C281.18812661 491.76696099 279.32517066 488.45430665 277.625 484.875 C275.975 485.205 274.325 485.535 272.625 485.875 C271.80386823 484.48422699 270.99347505 483.08711107 270.1875 481.6875 C269.73503906 480.91019531 269.28257812 480.13289063 268.81640625 479.33203125 C267.625 476.875 267.625 476.875 267.12890625 474.328125 C266.42261288 470.88973555 264.60322889 468.65402097 262.5859375 465.83984375 C261.625 463.875 261.625 463.875 261.9765625 461.62890625 C262.19054687 461.05011719 262.40453125 460.47132813 262.625 459.875 C263.615 460.865 264.605 461.855 265.625 462.875 C265.39669299 461.24681054 265.14156424 459.6223651 264.875 458 C264.73578125 457.09507812 264.5965625 456.19015625 264.453125 455.2578125 C263.84516157 452.71285757 263.84516157 452.71285757 261.546875 451.5546875 C260.91265625 451.33039063 260.2784375 451.10609375 259.625 450.875 C259.295 451.205 258.965 451.535 258.625 451.875 C258.955 449.565 259.285 447.255 259.625 444.875 C258.635 445.205 257.645 445.535 256.625 445.875 C253.87950461 441.65196701 251.34406658 437.63549208 249.625 432.875 C248.97464186 431.53363633 248.3087045 430.19967746 247.625 428.875 C246.41360595 426.52347037 245.46631716 424.39895149 244.625 421.875 C243.965 421.545 243.305 421.215 242.625 420.875 C242.625 419.225 242.625 417.575 242.625 415.875 C241.985625 415.71 241.34625 415.545 240.6875 415.375 C240.006875 414.88 239.32625 414.385 238.625 413.875 C238.33549853 411.84848969 238.05322877 409.81826762 237.89453125 407.77734375 C237.76000603 405.74953972 237.76000603 405.74953972 236.25 404 C234.72023513 402.94093201 233.17310678 401.90707119 231.625 400.875 C231.955 399.555 232.285 398.235 232.625 396.875 C231.635 397.205 230.645 397.535 229.625 397.875 C229.36976563 396.71871094 229.36976563 396.71871094 229.109375 395.5390625 C228.86703125 394.53617187 228.6246875 393.53328125 228.375 392.5 C228.02695313 391.00339844 228.02695313 391.00339844 227.671875 389.4765625 C226.8626588 386.739798 226.8626588 386.739798 224.515625 385.5234375 C223.89171875 385.30945313 223.2678125 385.09546875 222.625 384.875 C222.955 383.885 223.285 382.895 223.625 381.875 C222.965 380.885 222.305 379.895 221.625 378.875 C220.965 377.885 220.305 376.895 219.625 375.875 C218.965 375.875 218.305 375.875 217.625 375.875 C217.625 373.895 217.625 371.915 217.625 369.875 C216.635 369.875 215.645 369.875 214.625 369.875 C214.625 368.555 214.625 367.235 214.625 365.875 C215.285 365.545 215.945 365.215 216.625 364.875 C215.635 364.875 214.645 364.875 213.625 364.875 C212.965 362.895 212.305 360.915 211.625 358.875 C211.295 359.535 210.965 360.195 210.625 360.875 C209.635 360.215 208.645 359.555 207.625 358.875 C208.285 358.875 208.945 358.875 209.625 358.875 C209.625 358.215 209.625 357.555 209.625 356.875 C208.305 356.545 206.985 356.215 205.625 355.875 C205.625 353.895 205.625 351.915 205.625 349.875 C204.635 349.545 203.645 349.215 202.625 348.875 C202.955 348.215 203.285 347.555 203.625 346.875 C202.73336423 344.75816159 202.73336423 344.75816159 201.625 342.875 C201.295 342.875 200.965 342.875 200.625 342.875 C200.295 341.225 199.965 339.575 199.625 337.875 C198.51125 338.4009375 198.51125 338.4009375 197.375 338.9375 C194.4927274 339.92009293 193.41323655 339.9076802 190.625 338.875 C191.285 338.318125 191.945 337.76125 192.625 337.1875 C194.87992211 335.03437692 194.87992211 335.03437692 194.875 332.125 C194.75125 331.01125 194.75125 331.01125 194.625 329.875 C192.645 328.885 190.665 327.895 188.625 326.875 C188.625 325.885 188.625 324.895 188.625 323.875 C188.3064823 321.76679203 188.3064823 321.76679203 187.625 319.875 C186.965 319.545 186.305 319.215 185.625 318.875 C185.955 317.885 186.285 316.895 186.625 315.875 C184.975 314.885 183.325 313.895 181.625 312.875 C181.955 311.885 182.285 310.895 182.625 309.875 C181.965 309.875 181.305 309.875 180.625 309.875 C180.3775 309.070625 180.13 308.26625 179.875 307.4375 C178.90261141 304.703919 178.90261141 304.703919 176.5 304.0625 C175.571875 303.9696875 175.571875 303.9696875 174.625 303.875 C174.295 304.535 173.965 305.195 173.625 305.875 C173.29166667 304.54166667 172.95833333 303.20833333 172.625 301.875 C172.315625 300.8540625 172.315625 300.8540625 172 299.8125 C171.625 297.875 171.625 297.875 172.625 294.875 C172.13 294.215 171.635 293.555 171.125 292.875 C170.63 292.215 170.135 291.555 169.625 290.875 C169.955 289.885 170.285 288.895 170.625 287.875 C169.635 287.545 168.645 287.215 167.625 286.875 C167.955 286.215 168.285 285.555 168.625 284.875 C167.965 283.885 167.305 282.895 166.625 281.875 C164.975 282.535 163.325 283.195 161.625 283.875 C161.625 283.215 161.625 282.555 161.625 281.875 C162.615 281.545 163.605 281.215 164.625 280.875 C163.965 278.235 163.305 275.595 162.625 272.875 C162.295 273.535 161.965 274.195 161.625 274.875 C160.635 273.885 159.645 272.895 158.625 271.875 C159.285 271.545 159.945 271.215 160.625 270.875 C159.305 270.215 157.985 269.555 156.625 268.875 C156.625 267.885 156.625 266.895 156.625 265.875 C156.31411632 264.20400023 155.98419668 262.53628463 155.625 260.875 C154.965 261.205 154.305 261.535 153.625 261.875 C153.625 260.885 153.625 259.895 153.625 258.875 C152.305 258.545 150.985 258.215 149.625 257.875 C150 255.9375 150 255.9375 150.625 253.875 C151.285 253.545 151.945 253.215 152.625 252.875 C151.635 252.875 150.645 252.875 149.625 252.875 C148.965 251.555 148.305 250.235 147.625 248.875 C145.645 249.865 145.645 249.865 143.625 250.875 C143.955 249.885 144.285 248.895 144.625 247.875 C143.965 246.885 143.305 245.895 142.625 244.875 C142.955 243.885 143.285 242.895 143.625 241.875 C142.3875 240.76125 142.3875 240.76125 141.125 239.625 C138.625 236.875 138.625 236.875 138.625 232.875 C137.635 232.215 136.645 231.555 135.625 230.875 C134.9375 228.75 134.9375 228.75 134.625 226.875 C134.295 227.205 133.965 227.535 133.625 227.875 C130.625 224.25 130.625 224.25 130.625 220.875 C129.965 220.215 129.305 219.555 128.625 218.875 C128.46 218.194375 128.295 217.51375 128.125 216.8125 C127.96 216.173125 127.795 215.53375 127.625 214.875 C126.965 214.545 126.305 214.215 125.625 213.875 C125.480625 212.905625 125.33625 211.93625 125.1875 210.9375 C125.001875 209.926875 124.81625 208.91625 124.625 207.875 C123.635 207.215 122.645 206.555 121.625 205.875 C119.0595406 203.3095406 119.08453913 201.39813332 118.625 197.875 C116.4864515 200.0135485 116.19844937 201.00775314 115.625 203.875 C114.965 203.875 114.305 203.875 113.625 203.875 C113.810625 203.318125 113.99625 202.76125 114.1875 202.1875 C114.79049567 199.83804701 114.79049567 199.83804701 114.0625 197.375 C113.54866286 194.43878776 114.0671162 193.34928604 115.625 190.875 C114.635 190.875 113.645 190.875 112.625 190.875 C112.295 189.225 111.965 187.575 111.625 185.875 C110.635 185.875 109.645 185.875 108.625 185.875 C108.625 185.215 108.625 184.555 108.625 183.875 C108.30697057 182.20534549 107.97515049 180.53821482 107.625 178.875 C107.295 179.535 106.965 180.195 106.625 180.875 C105.965 180.545 105.305 180.215 104.625 179.875 C104.625 178.555 104.625 177.235 104.625 175.875 C103.965 175.545 103.305 175.215 102.625 174.875 C102.955 173.555 103.285 172.235 103.625 170.875 C102.985625 170.58625 102.34625 170.2975 101.6875 170 C99.625 168.875 99.625 168.875 98.625 166.875 C98.955 165.885 99.285 164.895 99.625 163.875 C98.305 163.875 96.985 163.875 95.625 163.875 C95.625 162.225 95.625 160.575 95.625 158.875 C94.965 159.205 94.305 159.535 93.625 159.875 C90.625 154.125 90.625 154.125 90.625 151.875 C89.965 151.545 89.305 151.215 88.625 150.875 C88.2528958 149.55196283 87.91869827 148.21762065 87.625 146.875 C87.295 146.545 86.965 146.215 86.625 145.875 C86.191875 144.9159375 86.191875 144.9159375 85.75 143.9375 C84.66304444 141.56464959 84.66304444 141.56464959 81.625 139.875 C81.625 138.885 81.625 137.895 81.625 136.875 C80.635 136.545 79.645 136.215 78.625 135.875 C78.955 134.555 79.285 133.235 79.625 131.875 C78.965 132.205 78.305 132.535 77.625 132.875 C76.965 130.235 76.305 127.595 75.625 124.875 C74.965 125.205 74.305 125.535 73.625 125.875 C73.625 124.885 73.625 123.895 73.625 122.875 C74.285 122.545 74.945 122.215 75.625 121.875 C73.975 121.875 72.325 121.875 70.625 121.875 C70.625 121.215 70.625 120.555 70.625 119.875 C69.49814334 116.49443001 67.87917808 114.60733707 65.625 111.875 C63.87872522 109.25558783 63.23777612 107.83675123 62.625 104.875 C60.975 105.205 59.325 105.535 57.625 105.875 C57.295 105.215 56.965 104.555 56.625 103.875 C55.965 103.875 55.305 103.875 54.625 103.875 C54.975625 102.8025 55.32625 101.73 55.6875 100.625 C56.69215761 96.62064889 56.69215761 96.62064889 55.625 92.875 C55.625 93.535 55.625 94.195 55.625 94.875 C54.965 94.215 54.305 93.555 53.625 92.875 C53.955 92.215 54.285 91.555 54.625 90.875 C54.295 89.885 53.965 88.895 53.625 87.875 C52.305 87.875 50.985 87.875 49.625 87.875 C49.295 87.215 48.965 86.555 48.625 85.875 C49.285 85.875 49.945 85.875 50.625 85.875 C50.625 85.215 50.625 84.555 50.625 83.875 C49.305 83.215 47.985 82.555 46.625 81.875 C46.955 80.885 47.285 79.895 47.625 78.875 C46.635 78.875 45.645 78.875 44.625 78.875 C44.295 80.195 43.965 81.515 43.625 82.875 C43.295 82.545 42.965 82.215 42.625 81.875 C42.99625 81.1325 43.3675 80.39 43.75 79.625 C44.92268803 76.94739022 44.92268803 76.94739022 43.75 74.6875 C43.37875 74.089375 43.0075 73.49125 42.625 72.875 C42.625 72.215 42.625 71.555 42.625 70.875 C41.965 70.545 41.305 70.215 40.625 69.875 C40 67.8125 40 67.8125 39.625 65.875 C38.965 66.865 38.305 67.855 37.625 68.875 C36.305 68.545 34.985 68.215 33.625 67.875 C33.625 65.895 33.625 63.915 33.625 61.875 C34.945 62.535 36.265 63.195 37.625 63.875 C36.95790534 60.65070912 36.03258428 58.28258428 33.625 55.875 C34.285 55.215 34.945 54.555 35.625 53.875 C33.975 53.875 32.325 53.875 30.625 53.875 C30.7075 53.111875 30.79 52.34875 30.875 51.5625 C30.7925 50.675625 30.71 49.78875 30.625 48.875 C28.6649719 47.23823743 28.6649719 47.23823743 26.625 45.875 C26.625 44.885 26.625 43.895 26.625 42.875 C25.305 42.215 23.985 41.555 22.625 40.875 C22.955 39.555 23.285 38.235 23.625 36.875 C22.965 37.205 22.305 37.535 21.625 37.875 C20.0625 36.125 20.0625 36.125 18.625 33.875 C18.9375 31.625 18.9375 31.625 19.625 29.875 C18.965 29.875 18.305 29.875 17.625 29.875 C17.295 28.885 16.965 27.895 16.625 26.875 C15.965 26.545 15.305 26.215 14.625 25.875 C14.480625 25.215 14.33625 24.555 14.1875 23.875 C14.001875 23.215 13.81625 22.555 13.625 21.875 C12.635 21.545 11.645 21.215 10.625 20.875 C10.955 19.555 11.285 18.235 11.625 16.875 C11.295 17.535 10.965 18.195 10.625 18.875 C10.295 18.215 9.965 17.555 9.625 16.875 C8.635 16.875 7.645 16.875 6.625 16.875 C4.625 13.875 4.625 13.875 4.625 10.875 C2.975 10.545 1.325 10.215 -0.375 9.875 C-0.045 8.885 0.285 7.895 0.625 6.875 C-0.365 6.545 -1.355 6.215 -2.375 5.875 C-2.375 6.535 -2.375 7.195 -2.375 7.875 C-4.375 6.875 -4.375 6.875 -6.375 3.875 Z M-94.375 117.875 C-94.375 119.195 -94.375 120.515 -94.375 121.875 C-93.385 121.545 -92.395 121.215 -91.375 120.875 C-92.365 119.885 -93.355 118.895 -94.375 117.875 Z M-97.375 122.875 C-97.045 124.525 -96.715 126.175 -96.375 127.875 C-95.385 126.885 -94.395 125.895 -93.375 124.875 C-94.695 124.215 -96.015 123.555 -97.375 122.875 Z M-100.375 127.875 C-100.705 129.525 -101.035 131.175 -101.375 132.875 C-99.725 131.225 -98.075 129.575 -96.375 127.875 C-97.695 127.875 -99.015 127.875 -100.375 127.875 Z M-148.375 208.875 C-148.705 210.855 -149.035 212.835 -149.375 214.875 C-147.725 213.225 -146.075 211.575 -144.375 209.875 C-145.695 209.545 -147.015 209.215 -148.375 208.875 Z M-273.375 429.875 C-273.705 431.855 -274.035 433.835 -274.375 435.875 C-273.385 434.885 -272.395 433.895 -271.375 432.875 C-272.035 431.885 -272.695 430.895 -273.375 429.875 Z M-61.375 68.875 C-60.715 69.205 -60.055 69.535 -59.375 69.875 C-59.705 70.865 -60.035 71.855 -60.375 72.875 C-61.035 72.545 -61.695 72.215 -62.375 71.875 C-62.045 70.885 -61.715 69.895 -61.375 68.875 Z M-211.375 325.875 C-209.375 326.875 -209.375 326.875 -209.375 326.875 Z M-119.375 821.875 C-118.385 822.37 -118.385 822.37 -117.375 822.875 C-118.365 823.37 -118.365 823.37 -119.375 823.875 C-119.375 823.215 -119.375 822.555 -119.375 821.875 Z " fill="#F2F2F2" transform="translate(527.375,76.125)"/>
<path d="M0 0 C0.33 0 0.66 0 1 0 C1.86387807 3.72612438 2.12170823 7.16225664 2.11352539 10.98364258 C2.11341209 12.75491264 2.11341209 12.75491264 2.11329651 14.56196594 C2.10813522 15.82671249 2.10297394 17.09145905 2.09765625 18.39453125 C2.0962413 19.69702316 2.09482635 20.99951508 2.09336853 22.34147644 C2.08956355 25.79216454 2.07975064 29.24281008 2.06866455 32.69348145 C2.05840689 36.21947657 2.0538616 39.74547861 2.04882812 43.27148438 C2.03812644 50.18100699 2.02107443 57.09050145 2 64 C0.515 64.495 0.515 64.495 -1 65 C-0.67 43.55 -0.34 22.1 0 0 Z " fill="#B6B6B6" transform="translate(773,736)"/>
<path d="M0 0 C2.475 0.99 2.475 0.99 5 2 C3.55193761 6.34418718 0.61138436 7.17253236 -3.3125 9.1875 C-3.869375 9.455625 -4.42625 9.72375 -5 10 C-5.12375 9.360625 -5.2475 8.72125 -5.375 8.0625 C-5.684375 7.0415625 -5.684375 7.0415625 -6 6 C-6.66 5.67 -7.32 5.34 -8 5 C-6.02 5 -4.04 5 -2 5 C-1.67 4.01 -1.34 3.02 -1 2 C-0.67 1.34 -0.34 0.68 0 0 Z M-9 8 C-8.34 8 -7.68 8 -7 8 C-7 8.66 -7 9.32 -7 10 C-6.34 10.33 -5.68 10.66 -5 11 C-5.66 11.66 -6.32 12.32 -7 13 C-7.66 11.35 -8.32 9.7 -9 8 Z M-11 11 C-10.34 11 -9.68 11 -9 11 C-8.67 12.32 -8.34 13.64 -8 15 C-8.99 15.495 -8.99 15.495 -10 16 C-10.33 14.35 -10.66 12.7 -11 11 Z " fill="#E1E1E1" transform="translate(497,90)"/>
<path d="M0 0 C0.33 0 0.66 0 1 0 C1 1.98 1 3.96 1 6 C1.66 6 2.32 6 3 6 C1.53511706 11.61538462 1.53511706 11.61538462 -1 13.4375 C-3 14 -3 14 -5 13 C-5 12.01 -5 11.02 -5 10 C-4.01 9.34 -3.02 8.68 -2 8 C-1.32852082 5.55936559 -1.32852082 5.55936559 -1 3 C-0.67 2.01 -0.34 1.02 0 0 Z M-9 12 C-8.01 12 -7.02 12 -6 12 C-6 12.99 -6 13.98 -6 15 C-5.34 15.33 -4.68 15.66 -4 16 C-5.32 16.33 -6.64 16.66 -8 17 C-7.67 15.68 -7.34 14.36 -7 13 C-7.66 12.67 -8.32 12.34 -9 12 Z " fill="#E2E2E3" transform="translate(404,242)"/>
<path d="M0 0 C3.0625 0.75 3.0625 0.75 5.0625 1.8125 C7.77703756 3.08493948 10.10566249 2.88440171 13.0625 2.75 C13.0625 3.41 13.0625 4.07 13.0625 4.75 C13.7225 5.08 14.3825 5.41 15.0625 5.75 C7.82660027 5.14700836 1.06879124 3.6349413 -5.9375 1.75 C-2.9375 -0.25 -2.9375 -0.25 0 0 Z " fill="#5E5F5E" transform="translate(351.9375,868.25)"/>
<path d="M0 0 C0.33 0 0.66 0 1 0 C1.33056194 4.73805442 0.6908233 7.11325523 -2 11 C-2.7734375 12.3921875 -2.7734375 12.3921875 -3.5625 13.8125 C-4.036875 14.534375 -4.51125 15.25625 -5 16 C-5.66 16 -6.32 16 -7 16 C-5.35433477 10.31497465 -2.70967216 5.23318364 0 0 Z " fill="#DEDEDE" transform="translate(231,550)"/>
<path d="M0 0 C4.96916636 0.51405169 9.29026351 1.23384882 14 3 C14 3.66 14 4.32 14 5 C8.58609132 4.53328373 4.79482068 3.75702189 0 1 C0 0.67 0 0.34 0 0 Z " fill="#434443" transform="translate(311,858)"/>
<path d="M0 0 C0.66 0.33 1.32 0.66 2 1 C-2.05387741 5.81397943 -5.0217942 6.88541926 -11 8 C-10.67 7.01 -10.34 6.02 -10 5 C-8.68 5 -7.36 5 -6 5 C-6 4.34 -6 3.68 -6 3 C-5.195625 2.690625 -4.39125 2.38125 -3.5625 2.0625 C-1.10919595 1.23664655 -1.10919595 1.23664655 0 0 Z " fill="#5E5F5E" transform="translate(723,851)"/>
<path d="M0 0 C1 2 1 2 0.25 4.4375 C-0.94131051 6.87968654 -1.88488303 8.3255324 -4 10 C-4.66 10 -5.32 10 -6 10 C-4.125 5.25 -4.125 5.25 -3 3 C-2.34 3 -1.68 3 -1 3 C-0.67 2.01 -0.34 1.02 0 0 Z " fill="#454645" transform="translate(491,129)"/>
<path d="M0 0 C1.875 0.9375 1.875 0.9375 4 3 C4.95351561 5.95485056 5.51196718 8.9369519 6 12 C3.12753751 9.29650589 1.58862143 6.63113469 0 3 C0 2.01 0 1.02 0 0 Z " fill="#DBDBDB" transform="translate(787,527)"/>
<path d="M0 0 C0.33 0.66 0.66 1.32 1 2 C1.99 2 2.98 2 4 2 C4.33 3.65 4.66 5.3 5 7 C4.01 6.67 3.02 6.34 2 6 C2 5.01 2 4.02 2 3 C1.34 3 0.68 3 0 3 C0 2.01 0 1.02 0 0 Z M-1 4 C-0.34 4 0.32 4 1 4 C1.33 4.99 1.66 5.98 2 7 C1.01 6.67 0.02 6.34 -1 6 C-1 5.34 -1 4.68 -1 4 Z " fill="#E3E3E3" transform="translate(501,84)"/>
<path d="M0 0 C0.66 0 1.32 0 2 0 C2.66 0.66 3.32 1.32 4 2 C4.99 2 5.98 2 7 2 C6.67 2.99 6.34 3.98 6 5 C3.4375 6.1875 3.4375 6.1875 1 7 C0.67 4.69 0.34 2.38 0 0 Z " fill="#E2E2E2" transform="translate(309,404)"/>
<path d="M0 0 C7.75 0.875 7.75 0.875 10 2 C10 2.66 10 3.32 10 4 C6.44219804 3.39009109 3.3171411 2.4216319 0 1 C0 0.67 0 0.34 0 0 Z " fill="#393B39" transform="translate(469,914)"/>
<path d="M0 0 C0.99 0.33 1.98 0.66 3 1 C2.67 1.598125 2.34 2.19625 2 2.8125 C0.79212012 5.05386471 0.79212012 5.05386471 1 8 C0.01 8 -0.98 8 -2 8 C-1.7525 7.1028125 -1.7525 7.1028125 -1.5 6.1875 C-0.8885876 3.88655664 -0.8885876 3.88655664 -1 1 C-0.67 0.67 -0.34 0.34 0 0 Z " fill="#DDDDDF" transform="translate(786,705)"/>
<path d="M0 0 C0.99 0 1.98 0 3 0 C1.25 5.75 1.25 5.75 -1 8 C-1.93065133 5.39417629 -2.14917407 4.35801776 -1.0625 1.75 C-0.711875 1.1725 -0.36125 0.595 0 0 Z " fill="#FDFDFD" transform="translate(760,831)"/>
<path d="M0 0 C0.6875 1.625 0.6875 1.625 1 4 C-1.33333333 9.66666667 -1.33333333 9.66666667 -4 11 C-3.52269162 9.5410574 -3.04308958 8.08286504 -2.5625 6.625 C-2.29566406 5.81289063 -2.02882813 5.00078125 -1.75390625 4.1640625 C-1 2 -1 2 0 0 Z " fill="#DDDDDD" transform="translate(268,480)"/>
<path d="M0 0 C0.99 0.99 1.98 1.98 3 3 C2.67 3.66 2.34 4.32 2 5 C-0.5625 5.625 -0.5625 5.625 -3 6 C-1.125 1.125 -1.125 1.125 0 0 Z " fill="#FDFDFD" transform="translate(814,665)"/>
<path d="M0 0 C0.99 0 1.98 0 3 0 C3.66 0.99 4.32 1.98 5 3 C5.99 2.67 6.98 2.34 8 2 C7.67 2.99 7.34 3.98 7 5 C4.9375 5.6875 4.9375 5.6875 3 6 C2.87625 5.195625 2.7525 4.39125 2.625 3.5625 C2.315625 2.2940625 2.315625 2.2940625 2 1 C1.34 0.67 0.68 0.34 0 0 Z " fill="#E3E3E3" transform="translate(469,128)"/>
<path d="M0 0 C1.423125 0.37125 1.423125 0.37125 2.875 0.75 C3.205 1.41 3.535 2.07 3.875 2.75 C0.575 2.42 -2.725 2.09 -6.125 1.75 C-3.125 -0.25 -3.125 -0.25 0 0 Z " fill="#3D3F3C" transform="translate(352.125,868.25)"/>
<path d="M0 0 C2.91227269 3.28804981 4.49701212 5.59885603 5 10 C3.5 8.6875 3.5 8.6875 2 7 C2 6.01 2 5.02 2 4 C1.34 4 0.68 4 0 4 C0 2.68 0 1.36 0 0 Z " fill="#989898" transform="translate(230,663)"/>
<path d="M0 0 C2.52259061 1.97420135 2.9929808 2.96745642 3.6875 6.1875 C3.790625 7.115625 3.89375 8.04375 4 9 C1.27573689 6.64722731 0.1858237 4.37503669 -1 1 C-0.67 0.67 -0.34 0.34 0 0 Z " fill="#DCDCDC" transform="translate(762,479)"/>
<path d="M0 0 C2.0625 0.4375 2.0625 0.4375 4 1 C4 1.66 4 2.32 4 3 C2.68 2.67 1.36 2.34 0 2 C-0.33 3.32 -0.66 4.64 -1 6 C-1.66 6 -2.32 6 -3 6 C-1.125 1.125 -1.125 1.125 0 0 Z " fill="#5F605F" transform="translate(511,94)"/>
<path d="M0 0 C2.31 1.65 4.62 3.3 7 5 C6.01 5.495 6.01 5.495 5 6 C2.64018187 5.06421005 0.30368736 4.06652192 -2 3 C-1.34 2.67 -0.68 2.34 0 2 C0 1.34 0 0.68 0 0 Z " fill="#FFFFFF" transform="translate(437,918)"/>
<path d="M0 0 C0.66 0.99 1.32 1.98 2 3 C1.01 4.485 1.01 4.485 0 6 C-1.32 5.67 -2.64 5.34 -4 5 C-2.68 3.35 -1.36 1.7 0 0 Z " fill="#F1F1F1" transform="translate(446,179)"/>
</svg>
